<svg width="276" height="195" viewBox="0 0 276 195" fill="none" xmlns="http://www.w3.org/2000/svg">
<g clip-path="url(#clip0_840_137)">
<path d="M276 170.979H0V171.109H276V170.979Z" fill="#EBEBEB"/>
<path d="M248.345 179.383H230.062V179.514H248.345V179.383Z" fill="#EBEBEB"/>
<path d="M166.396 179.449H161.598V179.579H166.396V179.449Z" fill="#EBEBEB"/>
<path d="M229.509 174.535H195.592V174.665H229.509V174.535Z" fill="#EBEBEB"/>
<path d="M124.281 177.617H117.274V177.747H124.281V177.617Z" fill="#EBEBEB"/>
<path d="M112.36 177.617H92.0283V177.747H112.36V177.617Z" fill="#EBEBEB"/>
<path d="M42.9954 175.412H28.958V175.542H42.9954V175.412Z" fill="#EBEBEB"/>
<path d="M87.6454 175.412H46.3066V175.542H87.6454V175.412Z" fill="#EBEBEB"/>
<path d="M130.831 147.692H24.2407C22.5035 147.692 21.0898 146.354 21.0898 144.711V2.98048C21.0898 1.33725 22.5035 0 24.2407 0H130.831C132.568 0 133.982 1.33725 133.982 2.98048V144.711C133.982 146.354 132.568 147.692 130.831 147.692ZM24.2407 0.131062C22.5791 0.131062 21.2278 1.40931 21.2278 2.981V144.712C21.2278 146.283 22.5791 147.562 24.2407 147.562H130.831C132.492 147.562 133.844 146.283 133.844 144.712V2.98048C133.844 1.40931 132.492 0.13054 130.831 0.13054L24.2407 0.131062Z" fill="#EBEBEB"/>
<path d="M250.227 147.692H143.637C141.899 147.692 140.486 146.354 140.486 144.711V2.98048C140.486 1.33725 141.9 0 143.637 0H250.227C251.964 0 253.378 1.33725 253.378 2.98048V144.711C253.378 146.354 251.964 147.692 250.227 147.692ZM143.637 0.131062C141.976 0.131062 140.624 1.40931 140.624 2.981V144.712C140.624 146.283 141.976 147.562 143.637 147.562H250.227C251.888 147.562 253.24 146.283 253.24 144.712V2.98048C253.24 1.40931 251.888 0.13054 250.227 0.13054L143.637 0.131062Z" fill="#EBEBEB"/>
<path d="M105.31 101.587L239.468 101.587V8.88701L105.31 8.88701V101.587Z" fill="#E6E6E6"/>
<path d="M99.3786 101.587L238.092 101.587V8.88701L99.3786 8.88701V101.587Z" fill="#F0F0F0"/>
<path d="M229.789 93.7333L229.789 16.7421L107.683 16.7421L107.683 93.7333L229.789 93.7333Z" fill="#FAFAFA"/>
<path d="M200.106 93.7333L172.308 16.7421H145.763L173.561 93.7333H200.106Z" fill="white"/>
<path d="M167.858 93.7333L140.061 16.7421H129.712L157.51 93.7333H167.858Z" fill="white"/>
<path d="M108.736 93.7334L108.736 16.7422H107.682L107.682 93.7334H108.736Z" fill="#E6E6E6"/>
<path d="M35.6455 76.3723H83.0176L83.0176 12.8407L35.6455 12.8407L35.6455 76.3723Z" fill="#E0E0E0"/>
<path d="M32.2901 76.3723H81.1211L81.1211 12.8407L32.2901 12.8407L32.2901 76.3723Z" fill="#F5F5F5"/>
<path d="M76.3018 71.3657L76.3018 17.8475L37.1109 17.8475L37.1109 71.3657H76.3018Z" fill="white"/>
<path d="M54.0574 120.851C57.5742 112.643 65.9376 109.588 68.8267 104.406C72.6123 97.6161 72.5908 87.4314 69.3677 83.756C66.5674 80.5624 57.2932 102.158 56.2489 104.571C52.6559 112.869 51.6115 119.028 50.9381 124.994C51.0148 119.923 51.0882 115.266 51.1484 111.673C51.3449 99.9544 51.5905 96.1849 51.7026 95.0252C52.0895 94.4587 52.5472 93.7986 52.8127 93.4446C55.0571 90.4516 60.0367 86.8884 62.5251 82.5372C66.1589 76.1841 65.5716 68.5805 63.023 65.7493C60.3579 62.7892 55.6472 69.7856 53.1455 76.7183C50.6444 83.651 51.7131 90.2866 51.0115 96.0439C50.8647 97.1734 50.714 101.462 50.5726 107.412C49.8136 101.01 48.3023 96.7217 45.5014 92.7251C42.0564 87.8095 39.0822 81.824 36.2433 82.5978C33.4049 83.3717 34.9328 91.2912 37.1784 96.8517C39.1783 101.803 49.0447 106.742 50.4981 110.723C50.327 118.788 50.1741 129.005 50.0654 138.517C49.2876 133.603 49.8225 133.191 46.6352 125.669C44.7402 121.196 36.9719 115.681 36.0457 118.754C35.1365 121.77 36.5276 127.635 39.4603 131.702C41.8262 134.983 47.0752 134.979 48.2896 137.015C48.5728 137.49 49.51 139.311 50.0449 140.358C49.918 151.971 49.8617 162.222 49.924 165.718L50.433 165.753C50.4087 164.85 50.47 158.943 50.5699 151.125C51.8445 146.965 60.4253 144.537 63.076 140.211C65.8503 135.684 67.8436 130.4 66.6541 126.863C65.6621 123.914 57.8425 127.924 54.669 132.812C52.5554 136.067 51.2643 139.541 50.6615 144.209C50.7338 138.883 50.8161 133.162 50.8961 127.761C51.5386 126.415 53.0037 123.311 54.0574 120.851Z" fill="#E6E6E6"/>
<path d="M59.0955 170.979H41.0589C40.0736 170.979 39.2241 170.322 39.0287 169.409L37.748 163.437H62.407L61.1264 169.409C60.9304 170.323 60.0814 170.979 59.0955 170.979Z" fill="#F0F0F0"/>
<path d="M62.9226 165.753H37.232C36.6165 165.753 36.0987 165.315 36.0303 164.736L35.5048 160.322C35.4242 159.644 35.985 159.05 36.7065 159.05H63.4476C64.169 159.05 64.7304 159.644 64.6493 160.322L64.1238 164.736C64.0553 165.315 63.5381 165.753 62.9226 165.753Z" fill="#F0F0F0"/>
<path d="M223.912 167.173H229.426V111.045H223.912V167.173Z" fill="#F0F0F0"/>
<path d="M111.537 170.913H227.308V167.173H111.537V170.913Z" fill="#F0F0F0"/>
<path d="M223.911 111.044H109.42V167.172H223.911V111.044Z" fill="#F5F5F5"/>
<path d="M225.208 111.045H230.906V107.507H225.208V111.045Z" fill="#E0E0E0"/>
<path d="M225.209 107.507H107.938V111.044H225.209V107.507Z" fill="#EBEBEB"/>
<path d="M215.694 135.286H117.637C115.192 135.286 113.204 133.405 113.204 131.092V119.072C113.204 116.759 115.193 114.879 117.637 114.879H215.694C218.139 114.879 220.127 116.759 220.127 119.072V131.092C220.127 133.405 218.139 135.286 215.694 135.286ZM117.637 115.923C115.801 115.923 114.308 117.336 114.308 119.072V131.092C114.308 132.828 115.801 134.241 117.637 134.241H215.694C217.529 134.241 219.023 132.828 219.023 131.092V119.072C219.023 117.336 217.529 115.923 215.694 115.923H117.637Z" fill="white"/>
<path d="M215.694 160.428H117.637C115.192 160.428 113.204 158.546 113.204 156.234V144.214C113.204 141.901 115.193 140.021 117.637 140.021H215.694C218.139 140.021 220.127 141.902 220.127 144.214V156.234C220.127 158.547 218.139 160.428 215.694 160.428ZM117.637 141.065C115.801 141.065 114.308 142.478 114.308 144.214V156.234C114.308 157.97 115.801 159.383 117.637 159.383H215.694C217.529 159.383 219.023 157.97 219.023 156.234V144.214C219.023 142.478 217.529 141.065 215.694 141.065H117.637Z" fill="white"/>
<path d="M193.411 126.932H139.922C139.131 126.932 138.488 126.323 138.488 125.576V124.588C138.488 123.84 139.131 123.232 139.922 123.232H193.411C194.201 123.232 194.844 123.84 194.844 124.588V125.576C194.844 126.323 194.201 126.932 193.411 126.932ZM139.922 124.276C139.744 124.276 139.592 124.419 139.592 124.588V125.576C139.592 125.745 139.743 125.888 139.922 125.888H193.411C193.589 125.888 193.74 125.745 193.74 125.576V124.588C193.74 124.419 193.589 124.276 193.411 124.276H139.922Z" fill="white"/>
<path d="M193.411 152.074H139.922C139.131 152.074 138.488 151.465 138.488 150.718V149.73C138.488 148.982 139.131 148.374 139.922 148.374H193.411C194.201 148.374 194.844 148.982 194.844 149.73V150.718C194.844 151.465 194.201 152.074 193.411 152.074ZM139.922 149.418C139.744 149.418 139.592 149.561 139.592 149.73V150.718C139.592 150.887 139.743 151.03 139.922 151.03H193.411C193.589 151.03 193.74 150.887 193.74 150.718V149.73C193.74 149.561 193.589 149.418 193.411 149.418H139.922Z" fill="white"/>
<path d="M135.24 194.561C194.349 194.561 242.266 191.914 242.266 188.649C242.266 185.383 194.349 182.736 135.24 182.736C76.1304 182.736 28.2129 185.383 28.2129 188.649C28.2129 191.914 76.1304 194.561 135.24 194.561Z" fill="#F5F5F5"/>
<path d="M206.875 58.8986L206.665 61.9739L207.216 62.0076L207.426 58.9323L206.875 58.8986Z" fill="#407BFF"/>
<path d="M207.729 46.4225L207.04 56.5275L207.591 56.5611L208.28 46.4561L207.729 46.4225Z" fill="#407BFF"/>
<path d="M201.171 31.7389H136.281C132.882 31.7389 129.921 34.3695 129.701 37.585L121.321 160.031C121.1 163.246 123.701 165.877 127.101 165.877H191.99C195.39 165.877 198.351 163.246 198.571 160.031L206.951 37.585C207.172 34.3695 204.571 31.7389 201.171 31.7389Z" fill="#407BFF"/>
<path opacity="0.7" d="M199.111 31.7389H136.281C132.882 31.7389 129.921 34.3695 129.701 37.585L121.321 160.031C121.1 163.246 123.701 165.877 127.101 165.877H189.931C193.33 165.877 196.291 163.246 196.511 160.031L204.892 37.585C205.111 34.3695 202.51 31.7389 199.111 31.7389Z" fill="white"/>
<path d="M193.815 156.829H124.701C123.609 156.829 122.745 155.957 122.816 154.927L130.399 44.1286C130.464 43.1882 131.288 42.4567 132.285 42.4567H201.398C202.49 42.4567 203.355 43.3292 203.284 44.3594L195.701 155.157C195.636 156.098 194.811 156.829 193.815 156.829Z" fill="white"/>
<path d="M178.455 38.8298H153.334C152.781 38.8298 152.362 38.4058 152.398 37.8826C152.434 37.3594 152.911 36.9354 153.464 36.9354H178.585C179.138 36.9354 179.557 37.3594 179.521 37.8826C179.485 38.4058 179.008 38.8298 178.455 38.8298Z" fill="white"/>
<path d="M158.848 161.484C158.778 162.77 157.619 163.812 156.26 163.812C154.901 163.812 153.857 162.769 153.927 161.484C153.997 160.199 155.156 159.157 156.515 159.157C157.874 159.157 158.919 160.199 158.848 161.484Z" fill="white"/>
<path opacity="0.2" d="M186.284 73.1461H127.267L123.518 127.924H186.284C189.683 127.924 192.464 125.294 192.464 122.078V78.9917C192.464 75.7768 189.683 73.1461 186.284 73.1461Z" fill="#407BFF"/>
<path d="M180.787 123.053H108.459C105.059 123.053 102.278 120.422 102.278 117.207V74.1203C102.278 70.9048 105.059 68.2742 108.459 68.2742H180.788C184.187 68.2742 186.968 70.9048 186.968 74.1203V117.207C186.967 120.422 184.186 123.053 180.787 123.053Z" fill="#407BFF"/>
<path d="M100.305 67.6461C100.163 67.6461 100.022 67.5949 99.9143 67.4931L98.9246 66.5569C98.7087 66.3527 98.7087 66.0227 98.9246 65.8185C99.1404 65.6144 99.4893 65.6144 99.7051 65.8185L100.695 66.7548C100.911 66.9589 100.911 67.2889 100.695 67.4931C100.587 67.5954 100.446 67.6461 100.305 67.6461Z" fill="#407BFF"/>
<path d="M98.8136 70.9226H97.4143C97.109 70.9226 96.8623 70.6887 96.8623 70.4005C96.8623 70.1122 97.109 69.8783 97.4143 69.8783H98.8136C99.1189 69.8783 99.3656 70.1122 99.3656 70.4005C99.3656 70.6887 99.1189 70.9226 98.8136 70.9226Z" fill="#407BFF"/>
<path d="M103.818 66.2337C103.531 66.2337 103.289 66.0238 103.268 65.7486L103.168 64.428C103.146 64.1403 103.375 63.8907 103.68 63.8699C103.99 63.8485 104.248 64.0662 104.269 64.3534L104.369 65.6739C104.391 65.9616 104.162 66.2112 103.858 66.2321C103.845 66.2332 103.831 66.2337 103.818 66.2337Z" fill="#407BFF"/>
<path d="M150.803 117.423L173.005 138.425V117.423H150.803Z" fill="#407BFF"/>
<path d="M156.888 108.221L155.813 103.786C155.531 102.623 155.527 101.415 155.803 100.25L157.299 93.9332C158.633 88.3012 155.611 82.6744 150.376 80.1983C150.42 80.0808 150.471 79.9665 150.501 79.8417C150.882 78.2308 149.811 76.6325 148.109 76.2717C146.406 75.9109 144.716 76.9238 144.335 78.5347C144.305 78.6595 144.3 78.7838 144.287 78.908C138.435 79.0344 133.164 82.9036 131.83 88.5356L130.334 94.8527C130.058 96.0171 129.51 97.1089 128.731 98.0473L125.758 101.624C124.49 103.149 125.339 105.404 127.34 105.828L153.561 111.385C155.562 111.809 157.347 110.112 156.888 108.221Z" fill="white"/>
<path d="M137.086 109.591C136.223 109.408 135.448 110.116 135.596 110.94C135.896 112.605 137.226 114.015 139.076 114.407C140.925 114.799 142.764 114.061 143.786 112.676C144.292 111.99 143.911 111.037 143.048 110.854L137.086 109.591Z" fill="white"/>
<path d="M116.951 100.792C116.684 100.792 116.422 100.67 116.262 100.443C113.635 96.722 112.698 92.2565 113.622 87.8688C114.547 83.4811 117.223 79.6965 121.156 77.2121C121.536 76.9719 122.05 77.069 122.304 77.4288C122.558 77.7885 122.456 78.2752 122.076 78.5154C118.51 80.7674 116.084 84.198 115.246 88.1753C114.408 92.1526 115.258 96.2009 117.639 99.574C117.893 99.9338 117.79 100.42 117.41 100.66C117.269 100.749 117.109 100.792 116.951 100.792Z" fill="white"/>
<path d="M120.461 98.5751C120.194 98.5751 119.931 98.4529 119.772 98.2268C117.771 95.3925 117.057 91.9912 117.761 88.6488C118.465 85.307 120.504 82.4242 123.499 80.5319C123.879 80.2912 124.394 80.3883 124.648 80.7486C124.902 81.1083 124.799 81.595 124.419 81.8352C121.79 83.4951 120.003 86.024 119.385 88.9554C118.767 91.8873 119.394 94.8709 121.148 97.3574C121.402 97.7172 121.299 98.2033 120.919 98.4435C120.779 98.5323 120.619 98.5751 120.461 98.5751Z" fill="white"/>
<path d="M123.971 96.3591C123.704 96.3591 123.442 96.2369 123.282 96.0108C121.907 94.0637 121.416 91.726 121.9 89.4295C122.384 87.1331 123.784 85.1525 125.843 83.8518C126.223 83.6111 126.737 83.7082 126.992 84.0685C127.245 84.4283 127.143 84.915 126.763 85.1551C125.072 86.223 123.922 87.85 123.525 89.736C123.127 91.6221 123.531 93.5421 124.659 95.1414C124.913 95.5012 124.811 95.9873 124.431 96.2275C124.289 96.3163 124.129 96.3591 123.971 96.3591Z" fill="white"/>
<path d="M164.687 111.816C164.387 111.816 164.098 111.661 163.951 111.392C163.741 111.008 163.901 110.535 164.307 110.336C168.117 108.476 170.932 105.323 172.236 101.46C173.538 97.5956 173.173 93.4831 171.206 89.8791C170.996 89.4948 171.155 89.0223 171.562 88.8238C171.968 88.6265 172.468 88.7758 172.677 89.1606C174.847 93.1358 175.251 97.6729 173.813 101.935C172.376 106.198 169.269 109.676 165.067 111.728C164.945 111.787 164.815 111.816 164.687 111.816Z" fill="white"/>
<path d="M162.752 108.269C162.452 108.269 162.163 108.114 162.015 107.845C161.805 107.461 161.965 106.988 162.371 106.79C165.18 105.418 167.255 103.094 168.216 100.247C169.176 97.3982 168.906 94.3665 167.456 91.7103C167.247 91.326 167.406 90.8534 167.812 90.655C168.219 90.4576 168.718 90.607 168.928 90.9918C170.581 94.0198 170.888 97.4755 169.793 100.722C168.698 103.969 166.332 106.618 163.131 108.182C163.009 108.241 162.88 108.269 162.752 108.269Z" fill="white"/>
<path d="M160.816 104.722C160.516 104.722 160.227 104.567 160.08 104.299C159.87 103.914 160.029 103.441 160.436 103.243C162.242 102.361 163.578 100.866 164.195 99.0336C164.813 97.2009 164.64 95.2511 163.707 93.5421C163.497 93.1578 163.657 92.6847 164.063 92.4868C164.47 92.2894 164.969 92.4388 165.179 92.8236C167.523 97.1189 165.736 102.417 161.195 104.635C161.074 104.694 160.944 104.722 160.816 104.722Z" fill="white"/>
<path d="M112.254 37.0186H108.036C107.816 37.0186 107.616 37.1893 107.593 37.3987L106.708 45.3564C106.685 45.5652 106.847 45.7365 107.068 45.7365H111.285C111.506 45.7365 111.706 45.5658 111.729 45.3564L112.613 37.3987C112.636 37.1898 112.474 37.0186 112.254 37.0186Z" fill="#407BFF"/>
<path opacity="0.4" d="M111.874 37.0186H108.036C107.816 37.0186 107.616 37.1893 107.593 37.3987L106.708 45.3564C106.685 45.5652 106.847 45.7365 107.068 45.7365H110.906C111.126 45.7365 111.326 45.5658 111.349 45.3564L112.234 37.3987C112.257 37.1898 112.095 37.0186 111.874 37.0186Z" fill="white"/>
<path d="M91.1184 184.163C91.6919 184.163 92.2428 184.088 92.4173 183.844C92.4785 183.759 92.5227 183.613 92.388 183.407C92.3129 183.29 92.1959 183.211 92.0419 183.172C91.289 182.981 89.766 183.823 89.7014 183.859C89.6644 183.88 89.6457 183.92 89.6545 183.962C89.6633 184.003 89.6987 184.036 89.7423 184.044C90.0293 184.098 90.5835 184.163 91.1184 184.163ZM91.7891 183.343C91.8636 183.343 91.9332 183.35 91.995 183.366C92.0938 183.391 92.1639 183.437 92.2086 183.506C92.2892 183.63 92.2649 183.692 92.2395 183.727C92.0441 184 90.9147 184.007 90.0784 183.896C90.4836 183.694 91.2669 183.343 91.7891 183.343Z" fill="#407BFF"/>
<path d="M89.7629 184.046C89.7778 184.046 89.7922 184.043 89.806 184.037C90.3348 183.808 91.3615 182.894 91.2577 182.416C91.2335 182.304 91.1429 182.164 90.8504 182.136C90.6323 182.115 90.4386 182.173 90.2713 182.308C89.7232 182.75 89.6553 183.889 89.6525 183.937C89.6503 183.973 89.6691 184.007 89.7005 184.028C89.7193 184.04 89.7408 184.046 89.7629 184.046ZM90.7742 182.332C90.7952 182.332 90.8161 182.333 90.8377 182.335C91.0292 182.353 91.0447 182.424 91.0491 182.448C91.1115 182.735 90.4187 183.454 89.8827 183.766C89.9247 183.434 90.0522 182.752 90.4126 182.463C90.5208 182.375 90.64 182.332 90.7742 182.332Z" fill="#407BFF"/>
<path d="M89.309 174.154H84.8389V183.946H89.309V174.154Z" fill="#FF8B7B"/>
<path d="M52.4111 179.279L56.8757 179.736L59.7886 170.231L55.324 169.774L52.4111 179.279Z" fill="#FF8B7B"/>
<path d="M58.9532 180.699C59.5151 180.832 60.0743 180.889 60.3089 180.697C60.3911 180.629 60.4723 180.5 60.3944 180.271C60.3514 180.142 60.257 180.039 60.1162 179.965C59.4284 179.606 57.7161 180.058 57.6433 180.077C57.6013 180.088 57.572 180.123 57.5704 180.165C57.5687 180.206 57.5941 180.246 57.635 180.264C57.9027 180.383 58.4293 180.574 58.9532 180.699ZM59.8248 180.07C59.8976 180.087 59.9639 180.11 60.0202 180.14C60.1107 180.187 60.167 180.247 60.1929 180.324C60.2393 180.462 60.1996 180.515 60.1653 180.543C59.9026 180.759 58.7942 180.502 58.0037 180.2C58.4536 180.102 59.3131 179.948 59.8248 180.07Z" fill="#407BFF"/>
<path d="M57.6545 180.271C57.6688 180.274 57.6837 180.275 57.6986 180.272C58.2766 180.176 59.5213 179.539 59.5445 179.057C59.55 178.944 59.4976 178.789 59.2188 178.694C59.0107 178.623 58.8054 178.633 58.6067 178.723C57.9542 179.018 57.5899 180.094 57.575 180.14C57.5639 180.173 57.5728 180.211 57.5982 180.238C57.6136 180.254 57.6335 180.265 57.6545 180.271ZM59.0935 178.864C59.114 178.869 59.1349 178.875 59.1554 178.882C59.3381 178.944 59.3348 179.015 59.3331 179.039C59.3193 179.328 58.4527 179.855 57.8455 180.03C57.9735 179.721 58.2766 179.098 58.7055 178.904C58.8341 178.846 58.9622 178.833 59.0935 178.864Z" fill="#407BFF"/>
<path d="M57.1154 179.345L52.2319 178.02C52.0542 177.972 51.8703 178.045 51.7892 178.197L49.9886 181.572C49.802 181.923 50.0245 182.362 50.4368 182.467C52.1491 182.903 53.0014 183.034 55.1492 183.618C56.4707 183.976 59.159 184.844 60.9833 185.339C62.7679 185.823 63.4861 184.213 62.779 183.858C59.6083 182.265 58.5932 180.979 57.7558 179.787C57.6051 179.571 57.3754 179.416 57.1154 179.345Z" fill="#263238"/>
<path d="M89.261 183.456H84.3796C84.1969 183.456 84.044 183.576 84.0126 183.745L83.3032 187.504C83.2298 187.893 83.5594 188.262 83.9811 188.255C85.7409 188.227 88.2806 188.13 90.4936 188.13C93.0814 188.13 94.4967 188.263 97.5316 188.263C99.3664 188.263 99.7948 186.508 99.0192 186.35C95.4892 185.626 93.4562 185.549 90.3528 183.786C90.0161 183.594 89.6468 183.456 89.261 183.456Z" fill="#263238"/>
<path opacity="0.2" d="M89.3067 174.157H84.835V179.204H89.3067V174.157Z" fill="black"/>
<path opacity="0.2" d="M55.322 169.777L59.7882 170.234L58.1703 175.506L53.8184 174.676L55.322 169.777Z" fill="black"/>
<path d="M81.9542 76.7976C81.9542 76.7976 79.4906 108.707 77.2655 120.812C74.829 134.069 60.6674 174.66 60.6674 174.66L52.5508 173.259C52.5508 173.259 62.7782 135.139 63.9115 122.014C65.1413 107.769 66.6213 78.4048 66.6213 78.4048L81.9542 76.7976Z" fill="#407BFF"/>
<path opacity="0.3" d="M77.7959 90.0478C78.2425 88.2897 79.257 90.499 80.4367 94.3274C79.5441 103.8 78.3766 114.771 77.2638 120.814C77.0132 122.168 76.64 123.81 76.1758 125.666C76.5854 112.151 76.5981 94.7901 77.7959 90.0478Z" fill="black"/>
<path d="M90.3836 75.9136C90.3836 75.9136 93.6277 108.006 93.7376 120.901C93.8518 134.312 90.9301 178.226 90.9301 178.226H83.3578C83.3578 178.226 81.0857 135.096 80.1402 121.924C79.109 107.565 74.7637 77.5505 74.7637 77.5505L90.3836 75.9136Z" fill="#407BFF"/>
<path d="M62.3786 172.077C62.4134 172.083 61.1073 174.857 61.1073 174.857L51.9756 173.281L52.5298 170.7L62.3786 172.077Z" fill="#263238"/>
<path d="M92.2534 175.374C92.2882 175.374 91.9636 178.347 91.9636 178.347H82.7524L82.3809 175.693L92.2534 175.374Z" fill="#263238"/>
<path d="M66.8575 47.3118C66.2514 48.4266 65.5846 49.5942 64.9735 50.7492L63.1193 54.2247C62.5188 55.387 61.9309 56.5493 61.3618 57.7116C60.8125 58.8781 60.2732 60.0389 59.7957 61.1976L59.7543 59.3674C60.0966 60.2838 60.4355 61.2195 60.9146 62.1166C61.1305 62.574 61.4021 63.0115 61.6416 63.4669C61.9149 63.906 62.1771 64.354 62.4768 64.7853C63.0531 65.661 63.689 66.5178 64.3735 67.3476C64.7174 67.7611 65.0602 68.1799 65.4245 68.5804C65.7805 68.9709 66.1846 69.3876 66.507 69.7265L66.6179 69.843C67.2052 70.4617 67.1517 71.4136 66.4976 71.9692C65.9792 72.4094 65.2374 72.4673 64.6605 72.165C64.029 71.8329 63.5234 71.5248 62.9896 71.1708C62.4669 70.8225 61.9507 70.4648 61.4551 70.0821C60.4626 69.3182 59.5363 68.4744 58.663 67.5684C57.7953 66.6604 56.9772 65.6892 56.2624 64.637C55.5227 63.6011 54.9061 62.4706 54.3508 61.3072C54.1035 60.7892 54.077 60.23 54.2327 59.7246L54.3094 59.4771C54.7306 58.1147 55.1998 56.7916 55.7187 55.4972C56.2353 54.2053 56.7884 52.936 57.3736 51.6859C57.9548 50.4354 58.5742 49.2057 59.2172 47.9885C59.8791 46.7719 60.5144 45.5814 61.2635 44.3653C62.1539 42.9199 64.114 42.4317 65.6414 43.2734C67.118 44.0875 67.6501 45.8466 66.8801 47.2679L66.8575 47.3118Z" fill="#FF8B7B"/>
<path d="M70.0285 45.4628C70.2482 49.4448 65.4673 56.7624 65.4673 56.7624L55.624 52.1099C55.624 52.1099 57.3032 47.0633 61.0761 43.1147C66.287 37.6628 69.8248 41.7748 70.0285 45.4628Z" fill="#263238"/>
<path d="M63.3574 71.4226L65.3391 74.5565L69.4625 72.0606C69.4625 72.0606 68.3668 70.0675 66.2571 69.3313C65.63 69.1125 64.919 69.3945 64.5801 69.9934L63.3574 71.4226Z" fill="#FF8B7B"/>
<path d="M66.9927 75.8901L68.9087 75.5507C69.5871 75.4306 70.032 74.8102 69.8995 74.1695L69.4623 72.0605L65.3389 74.5565L65.6182 75.1878C65.8439 75.6995 66.4169 75.9919 66.9927 75.8901Z" fill="#FF8B7B"/>
<path d="M78.6185 25.4334C78.6616 25.7754 78.8857 26.0381 79.1187 26.0208C79.3516 26.0031 79.5056 25.7122 79.462 25.3702C79.4189 25.0282 79.1948 24.7656 78.9619 24.7828C78.7295 24.8 78.5755 25.0914 78.6185 25.4334Z" fill="#263238"/>
<path d="M78.8535 26.0406C78.8535 26.0406 79.9128 27.9518 80.9252 28.8363C80.366 29.4477 79.2614 29.2702 79.2614 29.2702L78.8535 26.0406Z" fill="#FF5652"/>
<path d="M77.0748 23.6329C77.1317 23.6397 77.1897 23.6245 77.2344 23.5869C77.9183 23.0126 78.6585 23.2058 78.6894 23.2136C78.8032 23.2439 78.9163 23.1833 78.9445 23.0773C78.9726 22.9708 78.9047 22.8596 78.7921 22.8277C78.7535 22.8162 77.8057 22.5604 76.949 23.2799C76.8629 23.3515 76.8579 23.4789 76.9368 23.5634C76.9744 23.6031 77.0241 23.6271 77.0748 23.6329Z" fill="#263238"/>
<path d="M67.4932 29.2147C68.5486 32.2349 69.9501 37.811 67.9486 40.0417C67.9486 40.0417 69.2623 43.0859 75.3172 42.6034C81.9749 42.0729 78.0761 39.2349 78.0761 39.2349C74.3313 38.7065 74.0802 36.1584 74.3893 33.722L67.4932 29.2147Z" fill="#FF8B7B"/>
<path d="M66.5228 41.1466C65.8952 40.2015 65.2002 39.1191 66.382 38.7165C67.6826 38.2737 74.9651 37.5526 77.5589 38.1562C80.1528 38.7598 79.6273 40.7576 79.6273 40.7576L66.5228 41.1466Z" fill="#407BFF"/>
<path d="M87.8561 42.4192C88.8061 43.2452 89.8328 44.1559 90.8529 44.9939C91.873 45.8498 92.9085 46.6857 93.9452 47.5113C94.9907 48.3232 96.0439 49.1143 97.1071 49.8709C98.1791 50.6061 99.2527 51.3152 100.338 51.9366L98.1238 51.7413C98.9425 51.546 99.8257 51.1726 100.688 50.6165C101.548 50.0615 102.409 49.3759 103.211 48.5906C104.027 47.8167 104.795 46.9494 105.536 46.0466C105.904 45.5934 106.275 45.1339 106.623 44.6592C106.965 44.1929 107.321 43.6833 107.625 43.2468L107.686 43.1606C108.17 42.4651 109.159 42.2735 109.895 42.7319C110.493 43.1048 110.737 43.7945 110.548 44.4122C110.339 45.0905 110.12 45.6701 109.863 46.28C109.61 46.881 109.347 47.4799 109.047 48.0653C108.446 49.2365 107.755 50.3805 106.934 51.4828C106.107 52.5767 105.166 53.6466 104.007 54.6006C102.856 55.553 101.479 56.4162 99.8433 56.9613C99.1506 57.1921 98.4241 57.1331 97.812 56.8511L97.6287 56.766C96.2283 56.1149 94.9079 55.4 93.6449 54.6319C92.3869 53.8644 91.1775 53.0535 90.0045 52.2107C88.8326 51.369 87.701 50.4891 86.597 49.5832C85.4952 48.6569 84.4331 47.7666 83.3578 46.7291C82.1208 45.5344 82.1412 43.617 83.4042 42.4468C84.6247 41.3158 86.5589 41.296 87.8042 42.3748L87.8561 42.4192Z" fill="#FF8B7B"/>
<path d="M84.4868 39.7127C84.4868 39.7127 90.0482 44.821 90.6918 76.409C81.7985 78.447 73.2337 79.1994 66.6218 78.4047C66.3044 74.442 65.8386 60.6904 61.5865 46.188C60.8286 43.6028 62.5486 40.9591 65.3335 40.4505C66.1791 40.2959 67.0673 40.1534 67.95 40.0422C70.9755 39.6615 75.3699 39.2187 78.0769 39.236C81.6456 39.2579 84.4868 39.7127 84.4868 39.7127Z" fill="#263238"/>
<path d="M80.1661 45.2127C80.6999 49.168 87.8682 56.7623 87.8682 56.7623L96.3872 48.4104C96.3872 48.4104 92.7031 44.6613 88.2027 41.4667C81.9877 37.0566 79.6715 41.5492 80.1661 45.2127Z" fill="#263238"/>
<path d="M110.027 45.797L112.873 43.3303L109.459 40.012C109.459 40.012 107.615 41.4286 107.277 43.5313C107.177 44.1563 107.612 44.7584 108.3 44.9521L110.027 45.797Z" fill="#FF8B7B"/>
<path d="M113.921 41.5294L113.184 39.8224C112.923 39.2178 112.192 38.9306 111.555 39.1823L109.459 40.0115L112.874 43.3298L113.471 42.9444C113.955 42.6322 114.143 42.0421 113.921 41.5294Z" fill="#FF8B7B"/>
<path d="M66.642 25.6C67.4413 29.7777 67.6886 32.2528 70.1709 34.2417C73.9052 37.2336 79.0642 34.9059 79.5787 30.6372C80.0418 26.7952 78.6568 20.6081 74.1619 19.2589C69.7337 17.9294 65.8427 21.4222 66.642 25.6Z" fill="#FF8B7B"/>
<path d="M75.3499 27.1131C76.9016 27.4509 78.1248 25.7544 78.2705 25.2709C77.5159 25.3399 76.1773 24.9717 75.9096 24.649C76.7371 24.718 77.5402 23.7509 77.6379 23.3828C76.7371 23.2679 75.7396 22.5306 75.4719 22.0471C76.8105 22.0241 78.4256 19.7909 76.9485 17.7874C75.4719 15.7843 69.3138 17.4652 68.4372 16.0376C67.1472 16.7514 68.2909 17.6955 68.2909 17.6955C68.2909 17.6955 59.577 19.2379 63.5934 22.4387C60.6485 22.692 60.2345 25.9884 62.6925 27.6671C65.1511 29.3459 65.2726 30.4513 64.2988 30.3129C64.688 31.0267 66.4378 31.1186 66.5366 30.4283C66.9518 31.8788 68.1446 33.8359 70.8952 33.5137C73.6459 33.1916 76.3473 29.5537 75.3499 27.1131Z" fill="#263238"/>
<path d="M64.3691 21.9573C62.2952 22.2273 61.348 21.1193 61.8696 20.1444C59.2984 21.3861 62.1059 24.1347 64.3691 21.9573Z" fill="#263238"/>
<path d="M73.1993 26.4798C73.5542 27.3905 74.285 28.168 75.0104 28.6269C76.1011 29.3172 77.1157 28.6342 76.9253 27.5654C76.7536 26.6036 75.9797 25.0851 74.8304 24.8141C73.6983 24.5473 72.7935 25.4386 73.1993 26.4798Z" fill="#FF8B7B"/>
<path d="M213.506 173.652C209.42 164.534 207.77 153.823 212.446 154.254C217.243 154.696 216.677 170.861 217.458 172.636C215.958 173.852 213.506 173.652 213.506 173.652Z" fill="#407BFF"/>
<path d="M214.829 156.355C213.821 159.83 212.76 165.205 211.944 169.758C212.408 171.062 212.932 172.373 213.502 173.653C213.502 173.653 215.956 173.853 217.46 172.637C216.844 171.238 217.063 160.877 214.829 156.355Z" fill="#263238"/>
<path d="M214.847 171.982C213.571 152.609 217.072 134.654 226.243 135.465C234.126 136.162 222.633 168.777 222.854 172.54C219.244 173.864 214.847 171.982 214.847 171.982Z" fill="#407BFF"/>
<path d="M220.81 171.855C222.255 157.932 230.017 141.684 233.354 147.112C237.589 154.002 226.739 170.421 226.439 173.122C223.709 173.672 220.81 171.855 220.81 171.855Z" fill="#407BFF"/>
<path d="M219.348 140.635C218.418 140.491 217.899 139.941 217.958 139.164C218.024 138.288 218.786 137.417 219.494 137.404C219.832 137.407 220.408 137.569 220.55 138.781L220.002 138.839C219.934 138.266 219.751 137.926 219.51 137.926C219.508 137.926 219.507 137.926 219.505 137.926C219.128 137.933 218.555 138.577 218.508 139.201C218.469 139.709 218.782 140.018 219.436 140.12L219.348 140.635Z" fill="#407BFF"/>
<path d="M229.264 144.148C228.985 144.148 228.618 144.045 228.136 143.746L228.438 143.31C228.951 143.626 229.347 143.71 229.498 143.528C229.733 143.25 229.573 142.422 229.094 141.99C228.704 141.638 228.253 141.669 227.753 142.082L227.391 141.688C228.099 141.103 228.88 141.075 229.475 141.612C230.146 142.218 230.371 143.328 229.93 143.853C229.816 143.99 229.609 144.148 229.264 144.148Z" fill="#407BFF"/>
<path d="M215.73 152.027C214.984 152.027 214.455 151.659 214.286 151.002C214.067 150.15 214.509 149.1 215.179 148.883C215.495 148.781 216.102 148.775 216.63 149.888L216.127 150.102C215.876 149.573 215.591 149.302 215.358 149.376C215.002 149.492 214.666 150.27 214.822 150.879C214.949 151.373 215.348 151.576 216.003 151.485L216.085 152.001C215.962 152.018 215.844 152.027 215.73 152.027Z" fill="#407BFF"/>
<path d="M209.857 162.841C209.291 162.841 208.839 162.57 208.591 162.06C208.205 161.262 208.43 160.152 209.044 159.818C209.334 159.661 209.929 159.547 210.67 160.545L210.218 160.845C209.866 160.371 209.529 160.156 209.319 160.27C208.992 160.448 208.818 161.272 209.093 161.842C209.318 162.306 209.749 162.433 210.374 162.225L210.558 162.718C210.31 162.8 210.075 162.841 209.857 162.841Z" fill="#407BFF"/>
<path d="M219.634 147.076C219.579 147.076 219.523 147.06 219.474 147.027C218.715 146.515 218.443 145.806 218.745 145.131C219.064 144.42 219.93 143.947 220.674 144.076C221.015 144.135 221.813 144.423 221.869 145.813C221.874 145.956 221.756 146.078 221.603 146.084C221.455 146.088 221.323 145.976 221.317 145.833C221.288 145.109 221.025 144.668 220.574 144.59C220.087 144.506 219.469 144.854 219.252 145.336C219.053 145.782 219.245 146.232 219.794 146.603C219.919 146.687 219.947 146.85 219.858 146.967C219.805 147.038 219.72 147.076 219.634 147.076Z" fill="white"/>
<path d="M226.179 161.169C226.052 161.169 225.937 161.084 225.91 160.961C225.878 160.82 225.974 160.682 226.124 160.653C226.873 160.505 227.289 160.185 227.295 159.753C227.303 159.284 226.837 158.766 226.297 158.645C225.802 158.533 225.363 158.787 225.067 159.361C225.001 159.492 224.834 159.544 224.698 159.481C224.561 159.418 224.504 159.262 224.571 159.133C224.98 158.339 225.67 157.966 226.426 158.137C227.221 158.316 227.858 159.044 227.847 159.76C227.842 160.088 227.676 160.88 226.236 161.163C226.217 161.167 226.198 161.169 226.179 161.169Z" fill="white"/>
<path d="M233.937 156.769C233.621 156.769 233.195 156.59 232.716 155.915L233.174 155.624C233.516 156.105 233.845 156.322 234.06 156.216C234.391 156.045 234.584 155.224 234.321 154.649C234.107 154.181 233.678 154.045 233.049 154.24L232.876 153.744C233.769 153.466 234.499 153.727 234.827 154.441C235.196 155.247 234.947 156.352 234.325 156.674C234.228 156.724 234.096 156.769 233.937 156.769Z" fill="#407BFF"/>
<path d="M232.293 176.971C232.293 174.069 231.17 171.418 229.317 169.379C229.7 169.318 230 169.014 230 168.635C230 168.212 229.635 167.867 229.188 167.867H210.706C210.259 167.867 209.894 168.213 209.894 168.635C209.894 169.016 210.196 169.32 210.581 169.38C208.724 171.418 207.601 174.069 207.601 176.971C207.601 181.45 210.27 185.339 214.184 187.298C213.898 187.441 213.7 187.722 213.7 188.048C213.7 188.515 214.104 188.897 214.598 188.897H225.297C225.791 188.897 226.195 188.515 226.195 188.048C226.195 187.722 225.997 187.441 225.712 187.299C229.626 185.34 232.293 181.45 232.293 176.971Z" fill="#263238"/>
</g>
<defs>
<clipPath id="clip0_840_137">
<rect width="276" height="194.56" fill="white"/>
</clipPath>
</defs>
</svg>
