<svg width="278" height="188" viewBox="0 0 278 188" fill="none" xmlns="http://www.w3.org/2000/svg">
<path opacity="0.3" d="M274.983 146.521L193.359 185.749C189.713 187.5 184.198 187.69 181.04 186.174L2.13158 100.226C-1.02597 98.7093 -0.629747 96.06 3.01616 94.3081L84.6397 55.0805C88.2856 53.3291 93.8012 53.1388 96.9587 54.6554L275.867 140.603C279.025 142.12 278.629 144.77 274.983 146.521Z" fill="url(#paint0_linear_464_1782)"/>
<path d="M277.999 114.609L261.183 112.173L96.9587 33.2803C93.8011 31.7632 88.2856 31.9535 84.6397 33.7054L8.56522 70.2671L0.00162048 69.0266L0.000976562 76.2653L0.00870844 76.2663C0.00226577 77.2345 0.694852 78.1603 2.13221 78.8508L181.041 164.798C184.198 166.315 189.714 166.125 193.36 164.373L274.983 125.146C277.008 124.173 278.026 122.923 277.995 121.745L278 121.745V114.609H277.999Z" fill="url(#paint1_linear_464_1782)"/>
<path d="M274.983 117.955L193.359 157.183C189.713 158.934 184.198 159.124 181.04 157.608L2.13158 71.6598C-1.02597 70.1427 -0.629747 67.4934 3.01616 65.742L84.6397 26.5144C88.2856 24.7631 93.8012 24.5728 96.9587 26.0893L275.867 112.037C279.025 113.554 278.629 116.203 274.983 117.955Z" fill="url(#paint2_linear_464_1782)"/>
<path d="M56.0617 44.294L43.4656 50.3453C42.9186 50.608 42.0914 50.6364 41.6178 50.4091L41.4896 50.3474C41.0161 50.1201 41.0754 49.7224 41.6224 49.4597L54.2184 43.4084C54.7654 43.1457 55.5926 43.1173 56.0662 43.3446L56.1944 43.4063C56.6679 43.6341 56.6087 44.0314 56.0617 44.294Z" fill="#0063AD"/>
<path d="M25.9938 72.7679L24.4037 73.5318L20.6367 71.7226L22.2274 70.9581L25.9938 72.7679Z" fill="white"/>
<path d="M28.9235 71.3607L27.3334 72.1246L23.5664 70.3148L25.1571 69.5509L28.9235 71.3607Z" fill="white"/>
<path d="M31.8532 69.9531L30.2631 70.717L26.4961 68.9077L28.0868 68.1438L31.8532 69.9531Z" fill="white"/>
<path d="M34.7829 68.5457L33.1928 69.3096L29.4258 67.5004L31.0165 66.7365L34.7829 68.5457Z" fill="white"/>
<g opacity="0.5">
<mask id="mask0_464_1782" style="mask-type:luminance" maskUnits="userSpaceOnUse" x="0" y="25" width="278" height="134">
<path d="M274.983 117.955L193.359 157.183C189.713 158.934 184.198 159.124 181.04 157.608L2.13158 71.6598C-1.02597 70.1427 -0.629747 67.4934 3.01616 65.742L84.6397 26.5144C88.2856 24.7631 93.8012 24.5728 96.9587 26.0893L275.867 112.037C279.025 113.554 278.629 116.203 274.983 117.955Z" fill="white"/>
</mask>
<g mask="url(#mask0_464_1782)">
<path d="M196.337 102.505H151.75V162.25H151.762C151.731 162.651 151.997 163.037 152.589 163.322L171.796 172.549C173.039 173.146 175.21 173.071 176.645 172.382L195.155 163.49C195.895 163.134 196.288 162.685 196.331 162.251H196.336V102.505H196.337Z" fill="url(#paint3_linear_464_1782)"/>
<path d="M171.796 112.814L152.589 103.587C151.346 102.989 151.502 101.946 152.937 101.257L171.447 92.3649C172.882 91.6755 175.053 91.6005 176.296 92.1977L195.503 101.425C196.746 102.022 196.59 103.065 195.155 103.754L176.645 112.647C175.211 113.336 173.039 113.411 171.796 112.814Z" fill="url(#paint4_linear_464_1782)"/>
<path d="M195.155 103.067L176.645 111.959C175.21 112.648 173.039 112.724 171.796 112.126L152.589 102.899C152.195 102.71 151.958 102.474 151.84 102.22C151.618 102.721 151.851 103.232 152.589 103.587L171.796 112.814C173.039 113.411 175.21 113.336 176.645 112.646L195.155 103.754C196.135 103.284 196.503 102.65 196.252 102.104C196.099 102.447 195.739 102.786 195.155 103.067Z" fill="white"/>
<path d="M135.311 102.022H90.7246V161.767H90.7362C90.7059 162.167 90.9714 162.554 91.5634 162.839L110.77 172.066C112.013 172.663 114.184 172.588 115.62 171.898L134.13 163.006C134.87 162.651 135.263 162.201 135.306 161.767H135.31V102.022H135.311Z" fill="url(#paint5_linear_464_1782)"/>
<path d="M110.771 112.33L91.5646 103.103C90.3218 102.506 90.4777 101.463 91.9125 100.773L110.422 91.8809C111.858 91.1915 114.029 91.1165 115.272 91.7137L134.479 100.941C135.721 101.538 135.565 102.581 134.131 103.27L115.621 112.162C114.185 112.852 112.014 112.927 110.771 112.33Z" fill="url(#paint6_linear_464_1782)"/>
<path d="M134.13 102.583L115.62 111.475C114.185 112.164 112.014 112.24 110.771 111.642L91.564 102.415C91.1697 102.226 90.9326 101.99 90.816 101.736C90.5937 102.237 90.827 102.748 91.564 103.103L110.771 112.33C112.014 112.927 114.185 112.852 115.62 112.162L134.13 103.27C135.11 102.8 135.478 102.166 135.227 101.62C135.075 101.963 134.714 102.303 134.13 102.583Z" fill="white"/>
<path d="M165.825 116.751H121.238V176.496H121.25C121.22 176.897 121.485 177.283 122.077 177.568L141.284 186.795C142.527 187.392 144.698 187.317 146.133 186.628L164.643 177.736C165.383 177.38 165.776 176.93 165.82 176.497H165.824V116.751H165.825Z" fill="url(#paint7_linear_464_1782)"/>
<path d="M141.285 127.06L122.078 117.833C120.835 117.235 120.991 116.192 122.426 115.503L140.936 106.611C142.371 105.921 144.543 105.846 145.785 106.444L164.992 115.671C166.235 116.268 166.079 117.311 164.644 118L146.135 126.892C144.699 127.582 142.528 127.656 141.285 127.06Z" fill="url(#paint8_linear_464_1782)"/>
<path d="M164.644 117.313L146.134 126.204C144.699 126.894 142.527 126.969 141.285 126.372L122.078 117.145C121.683 116.955 121.446 116.719 121.33 116.466C121.107 116.967 121.341 117.478 122.078 117.832L141.285 127.059C142.527 127.656 144.699 127.581 146.134 126.892L164.644 118C165.624 117.529 165.992 116.895 165.74 116.349C165.588 116.693 165.228 117.032 164.644 117.313Z" fill="white"/>
</g>
</g>
<path d="M165.073 10.7108H120.486V75.9034H120.498C120.468 76.3039 120.733 76.6904 121.325 76.9751L140.532 86.202C141.775 86.7992 143.946 86.7242 145.381 86.0348L163.891 77.1428C164.632 76.7874 165.025 76.3376 165.068 75.9034H165.072L165.073 10.7108Z" fill="url(#paint9_linear_464_1782)"/>
<path d="M140.533 21.0191L121.326 11.7921C120.084 11.1949 120.239 10.1517 121.674 9.46232L140.184 0.570372C141.619 -0.119026 143.791 -0.194077 145.033 0.403115L164.24 9.63011C165.483 10.2273 165.327 11.2705 163.892 11.9599L145.383 20.8524C143.947 21.5413 141.776 21.6163 140.533 21.0191Z" fill="url(#paint10_linear_464_1782)"/>
<path d="M163.891 11.2721L145.382 20.1646C143.946 20.854 141.775 20.9291 140.532 20.3319L121.325 11.1049C120.931 10.9156 120.694 10.6792 120.577 10.4257C120.354 10.9269 120.588 11.4378 121.325 11.7921L140.532 21.0191C141.775 21.6163 143.946 21.5413 145.382 20.8519L163.891 11.9599C164.872 11.4892 165.239 10.8556 164.988 10.3093C164.835 10.653 164.475 10.9918 163.891 11.2721Z" fill="white"/>
<path d="M195.582 39.8068H150.995V90.6973H151.007C150.976 91.0978 151.242 91.4843 151.834 91.7689L171.041 100.996C172.284 101.593 174.455 101.518 175.89 100.829L194.4 91.9367C195.14 91.5813 195.533 91.1315 195.576 90.6973H195.581V39.8068H195.582Z" fill="url(#paint11_linear_464_1782)"/>
<path d="M171.042 50.1145L151.835 40.8875C150.592 40.2903 150.748 39.2471 152.183 38.5577L170.693 29.6657C172.128 28.9763 174.299 28.9013 175.542 29.4985L194.749 38.7255C195.992 39.3226 195.836 40.3659 194.401 41.0553L175.891 49.9472C174.456 50.6371 172.285 50.7117 171.042 50.1145Z" fill="url(#paint12_linear_464_1782)"/>
<path d="M194.4 40.368L175.89 49.2599C174.455 49.9493 172.284 50.0244 171.041 49.4272L151.834 40.2002C151.44 40.011 151.203 39.7746 151.086 39.521C150.863 40.0222 151.096 40.5331 151.834 40.8875L171.041 50.1145C172.284 50.7116 174.455 50.6366 175.89 49.9472L194.4 41.0552C195.381 40.5846 195.748 39.9509 195.497 39.4047C195.345 39.7483 194.984 40.0876 194.4 40.368Z" fill="white"/>
<path d="M134.559 78.5565H89.9727V90.1492H89.9842C89.954 90.5497 90.2194 90.9362 90.8115 91.2209L110.018 100.448C111.261 101.045 113.432 100.97 114.868 100.281L133.378 91.3886C134.118 91.0332 134.511 90.5835 134.554 90.1498H134.559L134.559 78.5565Z" fill="url(#paint13_linear_464_1782)"/>
<path d="M110.019 88.8648L90.8117 79.6378C89.5689 79.0406 89.7248 77.998 91.1596 77.308L109.669 68.4161C111.105 67.7267 113.276 67.6516 114.519 68.2488L133.726 77.4758C134.968 78.073 134.813 79.1162 133.378 79.8056L114.868 88.6976C113.433 89.387 111.262 89.462 110.019 88.8648Z" fill="url(#paint14_linear_464_1782)"/>
<path d="M133.379 79.1182L114.869 88.0102C113.434 88.6996 111.262 88.7746 110.02 88.1774L90.8127 78.9505C90.4184 78.7612 90.1813 78.5248 90.064 78.2712C89.8418 78.7725 90.075 79.2834 90.8127 79.6377L110.02 88.8647C111.262 89.4619 113.434 89.3868 114.869 88.6974L133.379 79.8055C134.359 79.3348 134.727 78.7012 134.475 78.1549C134.323 78.4985 133.963 78.8373 133.379 79.1182Z" fill="white"/>
<path d="M165.067 71.1978H120.48V104.942H120.492C120.462 105.343 120.727 105.729 121.319 106.014L140.526 115.241C141.769 115.838 143.94 115.763 145.376 115.074L163.885 106.182C164.626 105.826 165.019 105.377 165.062 104.943H165.066V71.1978H165.067Z" fill="url(#paint15_linear_464_1782)"/>
<path d="M140.527 81.5061L121.32 72.2791C120.078 71.6819 120.234 70.6392 121.668 69.9493L140.178 61.0573C141.614 60.3679 143.785 60.2929 145.028 60.8901L164.234 70.1171C165.477 70.7142 165.321 71.7575 163.887 72.4469L145.377 81.3388C143.941 82.0282 141.77 82.1033 140.527 81.5061Z" fill="url(#paint16_linear_464_1782)"/>
<path d="M163.886 71.7591L145.376 80.6511C143.941 81.3405 141.77 81.4155 140.527 80.8183L121.32 71.5913C120.926 71.4021 120.688 71.1657 120.572 70.9121C120.35 71.4133 120.583 71.9242 121.32 72.2786L140.527 81.5056C141.77 82.1028 143.941 82.0277 145.376 81.3383L163.886 72.4464C164.866 71.9757 165.234 71.342 164.983 70.7958C164.83 71.1399 164.47 71.4787 163.886 71.7591Z" fill="white"/>
<path d="M274.983 117.029L193.36 156.257C189.714 158.008 184.198 158.199 181.041 156.682L2.13177 70.7341C0.938584 70.161 0.25437 69.4255 0.0598016 68.6385C-0.190818 69.7616 0.479222 70.866 2.13177 71.6599L181.04 157.607C184.198 159.124 189.713 158.934 193.359 157.182L274.983 117.955C277.251 116.865 278.26 115.428 277.939 114.132C277.711 115.156 276.721 116.194 274.983 117.029Z" fill="white"/>
<defs>
<linearGradient id="paint0_linear_464_1782" x1="0.000217411" y1="120.415" x2="277.999" y2="120.415" gradientUnits="userSpaceOnUse">
<stop stop-color="#59BDEF"/>
<stop offset="1" stop-color="#7BDAFF"/>
</linearGradient>
<linearGradient id="paint1_linear_464_1782" x1="10.4014" y1="99.0391" x2="276.971" y2="99.0391" gradientUnits="userSpaceOnUse">
<stop stop-color="#3A9BD5"/>
<stop offset="0.3002" stop-color="#3796D1"/>
<stop offset="0.6734" stop-color="#2F86C7"/>
<stop offset="1" stop-color="#2573BA"/>
</linearGradient>
<linearGradient id="paint2_linear_464_1782" x1="25.3322" y1="112.238" x2="221.715" y2="12.7235" gradientUnits="userSpaceOnUse">
<stop stop-color="#59BDEF"/>
<stop offset="1" stop-color="#7BDAFF"/>
</linearGradient>
<linearGradient id="paint3_linear_464_1782" x1="151.75" y1="137.729" x2="196.336" y2="137.729" gradientUnits="userSpaceOnUse">
<stop offset="0.4032" stop-color="#FD5A05"/>
<stop offset="0.423" stop-color="#FA5505"/>
<stop offset="0.5505" stop-color="#EC3D03"/>
<stop offset="0.6846" stop-color="#E22C01"/>
<stop offset="0.8286" stop-color="#DC2100"/>
<stop offset="1" stop-color="#DA1E00"/>
</linearGradient>
<linearGradient id="paint4_linear_464_1782" x1="154.377" y1="77.8237" x2="190.75" y2="143.746" gradientUnits="userSpaceOnUse">
<stop offset="0.4032" stop-color="#FC8B04"/>
<stop offset="0.5099" stop-color="#FC7904"/>
<stop offset="0.6558" stop-color="#FD6805"/>
<stop offset="0.813" stop-color="#FD5D05"/>
<stop offset="1" stop-color="#FD5A05"/>
</linearGradient>
<linearGradient id="paint5_linear_464_1782" x1="90.7246" y1="137.245" x2="135.311" y2="137.245" gradientUnits="userSpaceOnUse">
<stop offset="0.4032" stop-color="#FD5A05"/>
<stop offset="0.423" stop-color="#FA5505"/>
<stop offset="0.5505" stop-color="#EC3D03"/>
<stop offset="0.6846" stop-color="#E22C01"/>
<stop offset="0.8286" stop-color="#DC2100"/>
<stop offset="1" stop-color="#DA1E00"/>
</linearGradient>
<linearGradient id="paint6_linear_464_1782" x1="93.352" y1="77.3402" x2="129.725" y2="143.263" gradientUnits="userSpaceOnUse">
<stop offset="0.4032" stop-color="#FC8B04"/>
<stop offset="0.5099" stop-color="#FC7904"/>
<stop offset="0.6558" stop-color="#FD6805"/>
<stop offset="0.813" stop-color="#FD5D05"/>
<stop offset="1" stop-color="#FD5A05"/>
</linearGradient>
<linearGradient id="paint7_linear_464_1782" x1="121.238" y1="151.975" x2="165.825" y2="151.975" gradientUnits="userSpaceOnUse">
<stop offset="0.4032" stop-color="#FD5A05"/>
<stop offset="0.423" stop-color="#FA5505"/>
<stop offset="0.5505" stop-color="#EC3D03"/>
<stop offset="0.6846" stop-color="#E22C01"/>
<stop offset="0.8286" stop-color="#DC2100"/>
<stop offset="1" stop-color="#DA1E00"/>
</linearGradient>
<linearGradient id="paint8_linear_464_1782" x1="123.866" y1="92.0695" x2="160.239" y2="157.992" gradientUnits="userSpaceOnUse">
<stop offset="0.4032" stop-color="#FC8B04"/>
<stop offset="0.5099" stop-color="#FC7904"/>
<stop offset="0.6558" stop-color="#FD6805"/>
<stop offset="0.813" stop-color="#FD5D05"/>
<stop offset="1" stop-color="#FD5A05"/>
</linearGradient>
<linearGradient id="paint9_linear_464_1782" x1="120.486" y1="48.6582" x2="165.073" y2="48.6582" gradientUnits="userSpaceOnUse">
<stop offset="0.4032" stop-color="#FD5A05"/>
<stop offset="0.423" stop-color="#FA5505"/>
<stop offset="0.5505" stop-color="#EC3D03"/>
<stop offset="0.6846" stop-color="#E22C01"/>
<stop offset="0.8286" stop-color="#DC2100"/>
<stop offset="1" stop-color="#DA1E00"/>
</linearGradient>
<linearGradient id="paint10_linear_464_1782" x1="123.114" y1="-13.9707" x2="159.487" y2="51.9518" gradientUnits="userSpaceOnUse">
<stop offset="0.4032" stop-color="#FC8B04"/>
<stop offset="0.5099" stop-color="#FC7904"/>
<stop offset="0.6558" stop-color="#FD6805"/>
<stop offset="0.813" stop-color="#FD5D05"/>
<stop offset="1" stop-color="#FD5A05"/>
</linearGradient>
<linearGradient id="paint11_linear_464_1782" x1="150.995" y1="70.6027" x2="195.582" y2="70.6027" gradientUnits="userSpaceOnUse">
<stop offset="0.4032" stop-color="#FD5A05"/>
<stop offset="0.423" stop-color="#FA5505"/>
<stop offset="0.5505" stop-color="#EC3D03"/>
<stop offset="0.6846" stop-color="#E22C01"/>
<stop offset="0.8286" stop-color="#DC2100"/>
<stop offset="1" stop-color="#DA1E00"/>
</linearGradient>
<linearGradient id="paint12_linear_464_1782" x1="153.622" y1="15.1248" x2="189.996" y2="81.0473" gradientUnits="userSpaceOnUse">
<stop offset="0.4032" stop-color="#FC8B04"/>
<stop offset="0.5099" stop-color="#FC7904"/>
<stop offset="0.6558" stop-color="#FD6805"/>
<stop offset="0.813" stop-color="#FD5D05"/>
<stop offset="1" stop-color="#FD5A05"/>
</linearGradient>
<linearGradient id="paint13_linear_464_1782" x1="89.9724" y1="89.7039" x2="134.559" y2="89.7039" gradientUnits="userSpaceOnUse">
<stop offset="0.4032" stop-color="#FD5A05"/>
<stop offset="0.423" stop-color="#FA5505"/>
<stop offset="0.5505" stop-color="#EC3D03"/>
<stop offset="0.6846" stop-color="#E22C01"/>
<stop offset="0.8286" stop-color="#DC2100"/>
<stop offset="1" stop-color="#DA1E00"/>
</linearGradient>
<linearGradient id="paint14_linear_464_1782" x1="92.5994" y1="53.8749" x2="128.972" y2="119.798" gradientUnits="userSpaceOnUse">
<stop offset="0.4032" stop-color="#FC8B04"/>
<stop offset="0.5099" stop-color="#FC7904"/>
<stop offset="0.6558" stop-color="#FD6805"/>
<stop offset="0.813" stop-color="#FD5D05"/>
<stop offset="1" stop-color="#FD5A05"/>
</linearGradient>
<linearGradient id="paint15_linear_464_1782" x1="120.48" y1="93.421" x2="165.067" y2="93.421" gradientUnits="userSpaceOnUse">
<stop offset="0.4032" stop-color="#FD5A05"/>
<stop offset="0.423" stop-color="#FA5505"/>
<stop offset="0.5505" stop-color="#EC3D03"/>
<stop offset="0.6846" stop-color="#E22C01"/>
<stop offset="0.8286" stop-color="#DC2100"/>
<stop offset="1" stop-color="#DA1E00"/>
</linearGradient>
<linearGradient id="paint16_linear_464_1782" x1="123.108" y1="46.5159" x2="159.481" y2="112.439" gradientUnits="userSpaceOnUse">
<stop offset="0.4032" stop-color="#FC8B04"/>
<stop offset="0.5099" stop-color="#FC7904"/>
<stop offset="0.6558" stop-color="#FD6805"/>
<stop offset="0.813" stop-color="#FD5D05"/>
<stop offset="1" stop-color="#FD5A05"/>
</linearGradient>
</defs>
</svg>
