<svg width="265" height="188" viewBox="0 0 265 188" fill="none" xmlns="http://www.w3.org/2000/svg">
<path d="M255.952 186.749C256.33 154.261 252.457 13.3052 213.219 13.3052C176.297 13.3052 171.004 102.185 131.894 102.712C92.7831 103.239 89.5658 53.067 53.7955 53.067C22.7228 53.067 11.5763 158.939 9.18457 186.749H255.952Z" fill="#DDE9EB"/>
<path d="M25.1804 136.121C34.13 133.429 39.3757 123.368 36.8971 113.649C34.4185 103.93 25.1542 98.2327 16.2046 100.924C7.25505 103.616 2.00931 113.677 4.48792 123.396C6.96653 133.116 16.2309 138.813 25.1804 136.121Z" fill="#6E9296"/>
<path d="M29.8165 130.268C35.7904 124.795 36.5476 115.099 31.5077 108.611C26.4678 102.123 17.5393 101.301 11.5653 106.774C5.59138 112.248 4.8342 121.944 9.87411 128.432C14.914 134.92 23.8425 135.742 29.8165 130.268Z" fill="#DDE9EB"/>
<path d="M12.1738 114.819L20.9539 117.746L20.1646 117.932L29.3403 108.905C29.4722 108.776 29.676 108.787 29.795 108.93C29.909 109.066 29.9041 109.275 29.789 109.406L21.2271 119.118L21.2212 119.125C21.0134 119.361 20.6996 119.42 20.4378 119.303L11.9562 115.476C11.7916 115.402 11.7137 115.197 11.7822 115.019C11.8461 114.852 12.0177 114.768 12.1738 114.819Z" fill="#6E9296"/>
<path d="M21.5221 105.507C21.5221 106.002 21.1523 106.404 20.6961 106.404C20.24 106.404 19.8701 106.002 19.8701 105.507C19.8701 105.011 20.24 104.61 20.6961 104.61C21.1523 104.609 21.5221 105.011 21.5221 105.507Z" fill="white"/>
<path d="M21.5221 131.544C21.5221 132.039 21.1523 132.441 20.6961 132.441C20.24 132.441 19.8701 132.039 19.8701 131.544C19.8701 131.049 20.24 130.647 20.6961 130.647C21.1523 130.647 21.5221 131.049 21.5221 131.544Z" fill="white"/>
<path d="M15.4176 106.802C15.6457 107.232 15.5103 107.78 15.1152 108.028C14.72 108.276 14.2148 108.129 13.9868 107.699C13.7587 107.27 13.894 106.722 14.2892 106.474C14.6843 106.226 15.1896 106.373 15.4176 106.802Z" fill="white"/>
<path d="M27.4054 129.352C27.6335 129.781 27.4981 130.329 27.103 130.577C26.7078 130.825 26.2026 130.678 25.9746 130.249C25.7465 129.819 25.8818 129.271 26.277 129.023C26.6721 128.775 27.1774 128.922 27.4054 129.352Z" fill="white"/>
<path d="M10.727 111.239C11.1222 111.487 11.2575 112.035 11.0294 112.464C10.8014 112.894 10.2962 113.041 9.90101 112.793C9.50586 112.545 9.37051 111.997 9.59857 111.567C9.82664 111.138 10.3319 110.991 10.727 111.239Z" fill="white"/>
<path d="M31.4907 124.258C31.8858 124.505 32.0212 125.054 31.7931 125.483C31.5651 125.912 31.0598 126.059 30.6647 125.812C30.2695 125.564 30.1342 125.015 30.3622 124.586C30.5903 124.157 31.0955 124.01 31.4907 124.258Z" fill="white"/>
<path d="M8.70832 117.628C9.16446 117.628 9.53432 118.03 9.53432 118.525C9.53432 119.021 9.16446 119.422 8.70832 119.422C8.25219 119.422 7.88232 119.021 7.88232 118.525C7.88232 118.03 8.25219 117.628 8.70832 117.628Z" fill="white"/>
<path d="M32.6839 117.628C33.14 117.628 33.5099 118.03 33.5099 118.525C33.5099 119.02 33.14 119.422 32.6839 119.422C32.2278 119.422 31.8579 119.02 31.8579 118.525C31.8574 118.03 32.2273 117.628 32.6839 117.628Z" fill="white"/>
<path d="M9.90101 124.258C10.2962 124.01 10.8014 124.157 11.0294 124.586C11.2575 125.015 11.1222 125.564 10.727 125.812C10.3319 126.059 9.82664 125.912 9.59857 125.483C9.37051 125.054 9.50586 124.506 9.90101 124.258Z" fill="white"/>
<path d="M30.6647 111.239C31.0598 110.991 31.5651 111.138 31.7931 111.567C32.0212 111.997 31.8858 112.545 31.4907 112.793C31.0955 113.041 30.5903 112.894 30.3622 112.464C30.1342 112.035 30.2695 111.487 30.6647 111.239Z" fill="white"/>
<path d="M13.9868 129.352C14.2148 128.922 14.72 128.775 15.1152 129.023C15.5103 129.271 15.6457 129.819 15.4176 130.249C15.1896 130.678 14.6843 130.825 14.2892 130.577C13.894 130.329 13.7587 129.781 13.9868 129.352Z" fill="white"/>
<path d="M25.9746 106.802C26.2026 106.373 26.7078 106.226 27.103 106.474C27.4981 106.722 27.6335 107.27 27.4054 107.699C27.1774 108.129 26.6721 108.276 26.277 108.028C25.8818 107.78 25.7465 107.232 25.9746 106.802Z" fill="white"/>
<path d="M240.825 152.591C250.923 152.591 259.11 143.7 259.11 132.733C259.11 121.765 250.923 112.875 240.825 112.875C230.726 112.875 222.539 121.765 222.539 132.733C222.539 143.7 230.726 152.591 240.825 152.591Z" fill="#4A75C9"/>
<path d="M240.825 132.733L234.762 151.468C236.66 152.192 238.699 152.59 240.825 152.59C250.71 152.59 258.758 144.07 259.094 133.424L240.825 132.733Z" fill="#EBBC3B"/>
<path d="M258.982 135.055C259.064 134.293 259.11 133.519 259.11 132.733C259.11 130.94 258.888 129.204 258.478 127.553L240.825 132.733L258.982 135.055Z" fill="#28364F"/>
<path d="M261.705 132.212C261.549 124.717 258.05 118.122 252.761 114.115L240.825 132.732L261.705 132.212Z" fill="#A4CACF"/>
<path d="M234.777 151.473L240.825 132.732L224.02 140.567C226.032 145.649 229.94 149.632 234.777 151.473Z" fill="#DE6767"/>
<path d="M236.262 113.498C228.371 115.699 222.54 123.477 222.54 132.733C222.54 135.575 223.093 138.274 224.083 140.719L240.825 132.733L236.262 113.498Z" fill="#28364F"/>
<path d="M126.311 69.2911H191.12L197.758 7.48853H132.949L126.311 69.2911Z" fill="#28364F"/>
<path d="M204.507 69.2911H139.698L133.059 7.48853H197.869L204.507 69.2911Z" fill="#EBBC3B"/>
<path d="M199.103 18.9787H134.294L133.059 7.48853H197.869L199.103 18.9787Z" fill="#4A75C9"/>
<path d="M190.35 12.3603C191.595 12.2553 192.405 10.0719 192.128 7.49228C191.844 4.84803 190.508 2.6146 189.209 2.6146C187.911 2.6146 187.054 4.84857 187.339 7.49228H186.399C186.048 4.22829 187.238 1.67126 189.108 1.67126C190.978 1.67126 192.717 4.22829 193.068 7.49228C193.413 10.7008 192.267 13.2201 190.452 13.3052L190.35 12.3603Z" fill="#28364F"/>
<path d="M183.277 12.3603C184.522 12.2553 185.332 10.0719 185.055 7.49228C184.771 4.84803 183.434 2.6146 182.136 2.6146C180.838 2.6146 179.981 4.84857 180.265 7.49228H179.325C178.975 4.22829 180.165 1.67126 182.035 1.67126C183.905 1.67126 185.644 4.22829 185.995 7.49228C186.339 10.7008 185.194 13.2201 183.378 13.3052L183.277 12.3603Z" fill="#28364F"/>
<path d="M176.203 12.3603C177.448 12.2553 178.258 10.0719 177.981 7.49228C177.697 4.84803 176.361 2.6146 175.062 2.6146C173.764 2.6146 172.908 4.84857 173.192 7.49228H172.252C171.901 4.22829 173.091 1.67126 174.961 1.67126C176.831 1.67126 178.571 4.22829 178.921 7.49228C179.266 10.7008 178.12 13.2201 176.304 13.3052L176.203 12.3603Z" fill="#28364F"/>
<path d="M169.129 12.3603C170.374 12.2553 171.184 10.0719 170.907 7.49228C170.623 4.84803 169.287 2.6146 167.988 2.6146C166.69 2.6146 165.833 4.84857 166.117 7.49228H165.177C164.827 4.22829 166.017 1.67126 167.887 1.67126C169.757 1.67126 171.496 4.22829 171.847 7.49228C172.191 10.7008 171.046 13.2201 169.23 13.3052L169.129 12.3603Z" fill="#28364F"/>
<path d="M162.056 12.3603C163.301 12.2553 164.111 10.0719 163.834 7.49228C163.549 4.84803 162.213 2.6146 160.915 2.6146C159.617 2.6146 158.76 4.84857 159.044 7.49228H158.104C157.754 4.22829 158.944 1.67126 160.814 1.67126C162.684 1.67126 164.423 4.22829 164.774 7.49228C165.118 10.7008 163.972 13.2201 162.157 13.3052L162.056 12.3603Z" fill="#28364F"/>
<path d="M154.982 12.3603C156.227 12.2553 157.037 10.0719 156.76 7.49228C156.476 4.84803 155.14 2.6146 153.841 2.6146C152.543 2.6146 151.686 4.84857 151.97 7.49228H151.03C150.68 4.22829 151.87 1.67126 153.74 1.67126C155.61 1.67126 157.349 4.22829 157.7 7.49228C158.044 10.7008 156.899 13.2201 155.084 13.3052L154.982 12.3603Z" fill="#28364F"/>
<path d="M147.908 12.3603C149.153 12.2553 149.963 10.0719 149.686 7.49228C149.402 4.84803 148.065 2.6146 146.767 2.6146C145.469 2.6146 144.612 4.84857 144.896 7.49228H143.956C143.606 4.22829 144.796 1.67126 146.666 1.67126C148.536 1.67126 150.275 4.22829 150.626 7.49228C150.97 10.7008 149.824 13.2201 148.009 13.3052L147.908 12.3603Z" fill="#28364F"/>
<path d="M140.834 12.3603C142.079 12.2553 142.89 10.0719 142.612 7.49228C142.328 4.84803 140.992 2.6146 139.694 2.6146C138.396 2.6146 137.539 4.84857 137.823 7.49228H136.883C136.532 4.22829 137.722 1.67126 139.592 1.67126C141.463 1.67126 143.202 4.22829 143.552 7.49228C143.897 10.7008 142.751 13.2201 140.936 13.3052L140.834 12.3603Z" fill="#28364F"/>
<path d="M171.053 29.9709H164.705L164.147 24.7739H170.495L171.053 29.9709Z" stroke="white" stroke-width="1.035" stroke-miterlimit="10"/>
<path d="M179.512 29.9709H173.163L172.605 24.7739H178.954L179.512 29.9709Z" fill="#599E84"/>
<path d="M187.971 29.9709H181.622L181.064 24.7739H187.413L187.971 29.9709Z" stroke="white" stroke-width="1.035" stroke-miterlimit="10"/>
<path d="M196.429 29.9709H190.081L189.522 24.7739H195.871L196.429 29.9709Z" fill="white"/>
<path d="M146.506 37.6888H140.157L139.6 32.4918H145.948L146.506 37.6888Z" stroke="white" stroke-width="1.035" stroke-miterlimit="10"/>
<path d="M154.965 37.6888H148.616L148.058 32.4918H154.407L154.965 37.6888Z" fill="#599E84"/>
<path d="M163.424 37.6888H157.075L156.517 32.4918H162.865L163.424 37.6888Z" fill="#599E84"/>
<path d="M171.882 37.6888H165.534L164.976 32.4918H171.324L171.882 37.6888Z" stroke="white" stroke-width="1.035" stroke-miterlimit="10"/>
<path d="M180.341 37.6888H173.992L173.434 32.4918H179.783L180.341 37.6888Z" stroke="white" stroke-width="1.035" stroke-miterlimit="10"/>
<path d="M188.8 37.6888H182.451L181.893 32.4918H188.241L188.8 37.6888Z" stroke="white" stroke-width="1.035" stroke-miterlimit="10"/>
<path d="M197.258 37.6888H190.91L190.352 32.4918H196.7L197.258 37.6888Z" fill="white"/>
<path d="M147.335 45.4068H140.987L140.429 40.2098H146.777L147.335 45.4068Z" stroke="white" stroke-width="1.035" stroke-miterlimit="10"/>
<path d="M155.794 45.4068H149.445L148.887 40.2098H155.236L155.794 45.4068Z" stroke="white" stroke-width="1.035" stroke-miterlimit="10"/>
<path d="M164.253 45.4068H157.904L157.346 40.2098H163.695L164.253 45.4068Z" stroke="white" stroke-width="1.035" stroke-miterlimit="10"/>
<path d="M172.711 45.4068H166.363L165.805 40.2098H172.153L172.711 45.4068Z" stroke="white" stroke-width="1.035" stroke-miterlimit="10"/>
<path d="M181.17 45.4068H174.821L174.264 40.2098H180.612L181.17 45.4068Z" fill="#599E84"/>
<path d="M189.629 45.4068H183.28L182.722 40.2098H189.07L189.629 45.4068Z" stroke="white" stroke-width="1.035" stroke-miterlimit="10"/>
<path d="M198.088 45.4068H191.739L191.181 40.2098H197.529L198.088 45.4068Z" fill="white"/>
<path d="M148.164 53.1247H141.815L141.257 47.9277H147.606L148.164 53.1247Z" stroke="white" stroke-width="1.035" stroke-miterlimit="10"/>
<path d="M156.623 53.1247H150.274L149.716 47.9277H156.065L156.623 53.1247Z" stroke="white" stroke-width="1.035" stroke-miterlimit="10"/>
<path d="M165.082 53.1247H158.733L158.175 47.9277H164.523L165.082 53.1247Z" fill="#599E84"/>
<path d="M173.54 53.1247H167.192L166.634 47.9277H172.982L173.54 53.1247Z" stroke="white" stroke-width="1.035" stroke-miterlimit="10"/>
<path d="M181.999 53.1247H175.65L175.092 47.9277H181.44L181.999 53.1247Z" stroke="white" stroke-width="1.035" stroke-miterlimit="10"/>
<path d="M190.458 53.1247H184.109L183.551 47.9277H189.899L190.458 53.1247Z" stroke="white" stroke-width="1.035" stroke-miterlimit="10"/>
<path d="M198.916 53.1247H192.568L192.009 47.9277H198.358L198.916 53.1247Z" fill="white"/>
<path d="M148.993 60.8426H142.645L142.086 55.6456H148.435L148.993 60.8426Z" stroke="white" stroke-width="1.035" stroke-miterlimit="10"/>
<path d="M157.452 60.8426H151.103L150.545 55.6456H156.894L157.452 60.8426Z" stroke="white" stroke-width="1.035" stroke-miterlimit="10"/>
<path d="M165.911 60.8426H159.562L159.004 55.6456H165.353L165.911 60.8426Z" fill="#599E84"/>
<path d="M174.369 60.8426H168.021L167.462 55.6456H173.811L174.369 60.8426Z" stroke="white" stroke-width="1.035" stroke-miterlimit="10"/>
<path d="M182.828 60.8426H176.48L175.921 55.6456H182.27L182.828 60.8426Z" stroke="white" stroke-width="1.035" stroke-miterlimit="10"/>
<path d="M207.19 106.309V96.6087H199.422C199.025 94.9982 198.441 93.4744 197.687 92.0643L203.181 86.0984L196.865 79.2404L191.372 85.2062C190.073 84.3878 188.67 83.7535 187.187 83.3222V74.8866H178.255V83.3222C176.773 83.7535 175.369 84.3878 174.071 85.2062L168.577 79.2404L162.262 86.0984L167.755 92.0643C167.002 93.4744 166.418 94.9982 166.021 96.6087H158.253V106.309H166.021C166.418 107.919 167.002 109.443 167.755 110.853L162.262 116.818L168.577 123.677L174.071 117.711C175.369 118.529 176.772 119.164 178.255 119.594V128.03H187.187V119.594C188.67 119.163 190.073 118.529 191.372 117.711L196.865 123.677L203.181 116.818L197.687 110.853C198.441 109.443 199.025 107.919 199.422 106.309H207.19ZM191.096 101.458C191.096 106.472 187.339 110.552 182.722 110.552C178.105 110.552 174.349 106.472 174.349 101.458C174.349 96.4445 178.105 92.3647 182.722 92.3647C187.338 92.3647 191.096 96.4445 191.096 101.458Z" fill="#A4CACF"/>
<mask id="mask0_464_349" style="mask-type:luminance" maskUnits="userSpaceOnUse" x="115" y="113" width="106" height="74">
<path d="M220.091 113.949H115.771V186.587H220.091V113.949Z" fill="white"/>
</mask>
<g mask="url(#mask0_464_349)">
<path d="M207.572 178.554V163.322H195.375C194.751 160.794 193.834 158.401 192.651 156.186L201.277 146.819L191.36 136.05L182.734 145.417C180.696 144.133 178.492 143.136 176.163 142.459V129.213H162.138V142.459C159.81 143.136 157.606 144.132 155.567 145.417L146.941 136.05L137.025 146.819L145.651 156.186C144.467 158.401 143.55 160.794 142.927 163.322H130.729V178.554H142.927C143.55 181.083 144.467 183.476 145.651 185.69L137.025 195.058L146.941 205.827L155.567 196.459C157.606 197.744 159.81 198.74 162.138 199.417V212.663H176.163V199.417C178.492 198.74 180.696 197.744 182.734 196.459L191.36 205.827L201.277 195.058L192.651 185.69C193.834 183.476 194.751 181.083 195.375 178.554H207.572ZM182.299 170.939C182.299 178.812 176.4 185.218 169.15 185.218C161.901 185.218 156.001 178.812 156.001 170.939C156.001 163.066 161.9 156.659 169.15 156.659C176.4 156.659 182.299 163.065 182.299 170.939Z" fill="#EBBC3B"/>
</g>
<path d="M166.13 186.749H65.0682L50.2661 22.8312H151.327L166.13 186.749Z" fill="#4A75C9"/>
<path d="M158.728 180.605H73.1729L59.4805 28.9752H145.036L158.728 180.605Z" fill="white"/>
<path d="M108.955 28.1898H93.6077L92.2849 13.5433C91.8694 8.94077 94.9677 5.20996 99.2058 5.20996C103.444 5.20996 107.216 8.94077 107.632 13.5433L108.955 28.1898Z" fill="#EBBC3B"/>
<path d="M102.305 13.9379C102.43 15.3238 101.497 16.4475 100.221 16.4475C98.9444 16.4475 97.8085 15.3238 97.6831 13.9379C97.5582 12.5519 98.4912 11.4282 99.7674 11.4282C101.044 11.4282 102.179 12.5519 102.305 13.9379Z" stroke="white" stroke-width="1.035" stroke-miterlimit="10"/>
<path d="M92.5703 16.7001L108.202 19.8564L108.767 26.1065H93.4196L92.5703 16.7001Z" fill="#1B2536"/>
<path d="M114.94 35.4812H88.939C85.0232 35.4812 81.5377 32.0342 81.154 27.7816L80.5322 20.8977H120.713L121.334 27.7816C121.718 32.0342 118.855 35.4812 114.94 35.4812Z" fill="#EBBC3B"/>
<path d="M84.6997 26.1066H117.486" stroke="white" stroke-width="1.035" stroke-miterlimit="10"/>
<path d="M84.9785 29.1998H117.765" stroke="white" stroke-width="1.035" stroke-miterlimit="10"/>
<path d="M79.2987 62.2506H70.5012C69.0272 62.2506 67.7148 60.953 67.5701 59.3517L66.7074 49.7982C66.5626 48.1975 67.6405 46.8993 69.115 46.8993H77.9124C79.3864 46.8993 80.6988 48.1969 80.8436 49.7982L81.7062 59.3517C81.8505 60.953 80.7727 62.2506 79.2987 62.2506Z" fill="#6E9296"/>
<path d="M103.654 50.6253H85.7755C85.0209 50.6253 84.3491 49.9609 84.2752 49.1414C84.2013 48.3219 84.7531 47.6575 85.5072 47.6575H103.386C104.14 47.6575 104.812 48.3219 104.886 49.1414C104.96 49.9609 104.408 50.6253 103.654 50.6253Z" stroke="#4A75C9" stroke-width="0.695" stroke-miterlimit="10"/>
<path d="M116.92 56.0587H86.2662C85.5116 56.0587 84.8398 55.3943 84.7659 54.5748C84.692 53.7553 85.2439 53.0908 85.9985 53.0908H116.653C117.407 53.0908 118.079 53.7553 118.153 54.5748C118.226 55.3943 117.675 56.0587 116.92 56.0587Z" stroke="#4A75C9" stroke-width="0.695" stroke-miterlimit="10"/>
<path d="M125.427 61.4926H86.7569C86.0023 61.4926 85.3305 60.8282 85.2566 60.0087C85.1828 59.1892 85.7346 58.5248 86.4887 58.5248H125.159C125.914 58.5248 126.585 59.1892 126.659 60.0087C126.734 60.8282 126.182 61.4926 125.427 61.4926Z" stroke="#4A75C9" stroke-width="0.695" stroke-miterlimit="10"/>
<path d="M82.158 93.9128H73.3606C71.8866 93.9128 70.5742 92.6151 70.4294 91.0138L69.5667 81.4598C69.422 79.8591 70.4998 78.5609 71.9743 78.5609H80.7718C82.2458 78.5609 83.5582 79.8585 83.7029 81.4598L84.5656 91.0138C84.7099 92.6146 83.632 93.9128 82.158 93.9128Z" fill="#D9956A"/>
<path d="M127.305 82.2867H88.6348C87.8802 82.2867 87.2084 81.6223 87.1346 80.8028C87.0607 79.9833 87.6125 79.3188 88.3666 79.3188H127.037C127.791 79.3188 128.463 79.9833 128.537 80.8028C128.611 81.6228 128.06 82.2867 127.305 82.2867Z" stroke="#4A75C9" stroke-width="0.695" stroke-miterlimit="10"/>
<path d="M119.78 87.7207H89.1251C88.3705 87.7207 87.6987 87.0562 87.6248 86.2367C87.5509 85.4172 88.1027 84.7528 88.8573 84.7528H119.512C120.266 84.7528 120.938 85.4172 121.012 86.2367C121.086 87.0562 120.534 87.7207 119.78 87.7207Z" stroke="#4A75C9" stroke-width="0.695" stroke-miterlimit="10"/>
<path d="M128.287 93.1539H89.6163C88.8617 93.1539 88.1899 92.4895 88.116 91.67C88.0421 90.8505 88.594 90.186 89.3481 90.186H128.018C128.773 90.186 129.445 90.8505 129.519 91.67C129.593 92.49 129.041 93.1539 128.287 93.1539Z" stroke="#4A75C9" stroke-width="0.695" stroke-miterlimit="10"/>
<path d="M85.0174 125.574H76.22C74.746 125.574 73.4336 124.277 73.2888 122.675L72.4261 113.121C72.2813 111.521 73.3592 110.223 74.8337 110.223H83.6312C85.1052 110.223 86.4175 111.52 86.5623 113.121L87.425 122.675C87.5693 124.277 86.4914 125.574 85.0174 125.574Z" fill="#6E9296"/>
<path d="M109.372 113.949H91.4937C90.7391 113.949 90.0673 113.285 89.9934 112.465C89.9196 111.646 90.4714 110.981 91.2255 110.981H109.104C109.859 110.981 110.53 111.646 110.604 112.465C110.679 113.285 110.127 113.949 109.372 113.949Z" stroke="#4A75C9" stroke-width="0.695" stroke-miterlimit="10"/>
<path d="M130.655 119.383H91.9845C91.2299 119.383 90.558 118.718 90.4842 117.899C90.4103 117.079 90.9616 116.415 91.7162 116.415H130.386C131.141 116.415 131.813 117.079 131.887 117.899C131.961 118.718 131.409 119.383 130.655 119.383Z" stroke="#4A75C9" stroke-width="0.695" stroke-miterlimit="10"/>
<path d="M131.145 124.816H92.4747C91.7201 124.816 91.0483 124.152 90.9744 123.332C90.9005 122.513 91.4524 121.848 92.2065 121.848H130.877C131.631 121.848 132.303 122.513 132.377 123.332C132.451 124.152 131.9 124.816 131.145 124.816Z" stroke="#4A75C9" stroke-width="0.695" stroke-miterlimit="10"/>
<path d="M87.8758 157.236H79.0784C77.6044 157.236 76.292 155.939 76.1472 154.337L75.2845 144.784C75.1397 143.183 76.2176 141.885 77.6921 141.885H86.4896C87.9636 141.885 89.2759 143.182 89.4207 144.784L90.2834 154.337C90.4282 155.939 89.3498 157.236 87.8758 157.236Z" fill="#D9956A"/>
<path d="M133.023 145.611H94.3526C93.598 145.611 92.9262 144.947 92.8523 144.127C92.7785 143.308 93.3303 142.643 94.0844 142.643H132.755C133.509 142.643 134.181 143.308 134.255 144.127C134.329 144.947 133.777 145.611 133.023 145.611Z" stroke="#4A75C9" stroke-width="0.695" stroke-miterlimit="10"/>
<path d="M125.498 151.044H94.8433C94.0887 151.044 93.4169 150.38 93.3431 149.561C93.2692 148.741 93.821 148.077 94.5751 148.077H125.229C125.984 148.077 126.656 148.741 126.73 149.561C126.804 150.381 126.252 151.044 125.498 151.044Z" stroke="#4A75C9" stroke-width="0.695" stroke-miterlimit="10"/>
<path d="M134.004 156.478H95.3336C94.579 156.478 93.9072 155.814 93.8333 154.994C93.7594 154.175 94.3112 153.51 95.0653 153.51H133.736C134.49 153.51 135.162 154.175 135.236 154.994C135.31 155.814 134.758 156.478 134.004 156.478Z" stroke="#4A75C9" stroke-width="0.695" stroke-miterlimit="10"/>
<path d="M130.954 52.8103L136.081 58.3954L141.964 50.7545" stroke="#599E84" stroke-width="3.9545" stroke-miterlimit="10" stroke-linecap="round" stroke-linejoin="round"/>
<path d="M136.672 116.134L141.798 121.719L147.682 114.078" stroke="#599E84" stroke-width="3.9545" stroke-miterlimit="10" stroke-linecap="round" stroke-linejoin="round"/>
<path d="M139.531 147.796L144.658 153.381L150.541 145.74" stroke="#599E84" stroke-width="3.9545" stroke-miterlimit="10" stroke-linecap="round" stroke-linejoin="round"/>
<path d="M135.362 82.0812L144.448 90.393" stroke="#D65353" stroke-width="3.9545" stroke-miterlimit="10" stroke-linecap="round" stroke-linejoin="round"/>
<path d="M143.698 82.0812L136.112 90.393" stroke="#D65353" stroke-width="3.9545" stroke-miterlimit="10" stroke-linecap="round" stroke-linejoin="round"/>
<path d="M214.435 169.939L214.429 177.737C214.428 178.294 214.514 178.843 214.687 179.366C215.122 180.676 215.942 183.622 215.844 186.976L199.294 186.961C199.294 186.961 200.262 184.581 204.646 183.121C205.424 182.862 206.139 182.414 206.76 181.84L208.374 180.347C209.267 179.522 209.688 178.243 209.481 176.99L208.315 169.934L214.435 169.939Z" fill="#DE6767"/>
<path d="M215.066 180.637L211.053 182.714L208.094 180.607L206.76 181.84C206.14 182.414 205.425 182.862 204.646 183.122C200.263 184.582 199.295 186.962 199.295 186.962L215.844 186.977C215.918 184.462 215.475 182.176 215.066 180.637Z" fill="#1B2536"/>
<path d="M227.795 169.952L229.231 178.701C229.303 179.138 229.309 179.584 229.249 180.023L228.299 186.988L240.969 187C240.969 187 240.798 184.94 240.195 184.378C239.592 183.816 237.869 182.41 237.869 182.41L235.283 179.493C234.701 178.836 234.351 177.976 234.297 177.066L233.871 169.957L227.795 169.952Z" fill="#DE6767"/>
<path d="M235.382 179.604C232.545 179.759 230.996 181.995 230.996 181.995L229.125 180.928L228.299 186.988L240.969 187C240.969 187 240.798 184.94 240.196 184.378C239.593 183.816 237.87 182.41 237.87 182.41L235.382 179.604Z" fill="#1B2536"/>
<path d="M208.129 77.0538L213.564 70.7406L220.158 70.6997L223.838 77.0683L220.708 98.1782L208.436 98.1669L208.129 77.0538Z" fill="#D4B5A5"/>
<path d="M212.352 77.7365L216.126 74.3234L220.603 79.1009" stroke="white" stroke-width="0.4636" stroke-miterlimit="10"/>
<path d="M216.125 75.9381L213.706 96.1542" stroke="white" stroke-width="0.4636" stroke-miterlimit="10"/>
<path d="M227.109 108.921L237.275 170.943L225.639 170.933L213.691 115.32L217.235 171.627L205.469 171.616L202.204 106.253L207.563 98.2751L224.445 98.7587L227.109 108.921Z" fill="#415780"/>
<path d="M227.109 108.921L224.445 98.7587L207.563 98.2751L202.204 106.253L202.285 107.88C205.947 107.962 218.013 108.561 227.746 112.804L227.109 108.921Z" fill="#28364F"/>
<path d="M213.691 115.32L212.449 109.973L213.326 99.5474" stroke="#1B2536" stroke-width="0.4636" stroke-miterlimit="10"/>
<path d="M208.684 111.033L219.761 111.043" stroke="#1B2536" stroke-width="0.4636" stroke-miterlimit="10"/>
<path d="M211.905 99.5458L212.539 108.907" stroke="#1B2536" stroke-width="0.4636" stroke-miterlimit="10"/>
<path d="M206.039 103.566L209.089 171.619" stroke="#1B2536" stroke-width="0.4636" stroke-miterlimit="10"/>
<path d="M220.704 103.579L231.975 170.938" stroke="#1B2536" stroke-width="0.4636" stroke-miterlimit="10"/>
<path d="M223.428 97.3496H207.25V100.151H223.428V97.3496Z" fill="#1B2536"/>
<path d="M215.742 53.8586C218.395 54.3685 220.466 56.1986 221.492 59.1993C222.008 60.7091 222.103 62.2538 223.331 63.2026C224.559 64.1513 224.751 65.5205 224.654 66.2926C224.556 67.0648 224.814 68.2235 225.589 68.8561L207.586 68.8394C207.586 68.8394 208.589 67.1907 208.397 65.7865C208.204 64.3823 207.59 63.4341 208.044 61.9954C208.498 60.5567 209.111 59.91 208.24 58.6959C206.981 56.9395 208.955 52.5534 215.742 53.8586Z" fill="#732727"/>
<path d="M215.169 57.052C215.169 57.6604 215.64 61.1242 218.225 62.4837L218.417 64.4264L220.158 70.6997L216.083 73.9486L213.564 70.7406L213.566 67.909C211.885 68.0711 210.485 67.0147 210.379 65.0488C210.273 63.083 210.361 61.3772 209.844 60.3235C209.844 60.3235 212.473 60.2788 215.169 57.052Z" fill="#DE6767"/>
<path d="M216.588 64.1808C216.588 64.7365 216.173 65.1866 215.662 65.1866C215.15 65.1866 214.735 64.736 214.735 64.1808C214.735 63.6252 215.15 63.175 215.662 63.175C216.173 63.1745 216.588 63.6252 216.588 64.1808Z" fill="#D65353"/>
<path d="M213.841 67.8622C213.841 67.8622 215.651 67.846 216.832 66.1624" stroke="#422424" stroke-width="0.4636" stroke-miterlimit="10"/>
<path d="M220.015 62.9721C219.563 64.0835 218.557 64.6774 217.767 64.2994C216.978 63.9209 216.704 62.7132 217.157 61.6018C217.608 60.4905 218.615 59.8966 219.404 60.2751C220.193 60.6531 220.467 61.8608 220.015 62.9721Z" fill="#DE6767"/>
<path d="M217.643 63.0216C217.643 63.0216 217.935 61.3369 219.276 61.0046" stroke="#422424" stroke-width="0.4636" stroke-miterlimit="10"/>
<path d="M218.79 62.3911L218.586 61.3477" stroke="#422424" stroke-width="0.4636" stroke-miterlimit="10"/>
<path d="M219.899 64.077C219.898 64.4517 219.619 64.7554 219.273 64.7549C218.928 64.7543 218.648 64.4506 218.649 64.0754C218.649 63.7006 218.929 63.3969 219.274 63.3975C219.619 63.398 219.899 63.7022 219.899 64.077Z" stroke="white" stroke-width="0.4636" stroke-miterlimit="10"/>
<path d="M211.636 62.8499L211.844 62.5225C211.74 62.4051 211.593 62.3362 211.434 62.3637C211.175 62.4084 210.999 62.6722 211.04 62.9527C211.081 63.2338 211.324 63.4249 211.583 63.3802C211.841 63.3356 212.017 63.0717 211.976 62.7912C211.973 62.7707 211.962 62.7546 211.957 62.7347L211.636 62.8499Z" fill="#1B2536"/>
<path d="M214.562 62.3454L214.771 62.018C214.666 61.9006 214.519 61.8317 214.36 61.8592C214.102 61.9039 213.925 62.1677 213.966 62.4482C214.008 62.7293 214.25 62.9204 214.509 62.8757C214.768 62.831 214.944 62.5672 214.902 62.2867C214.899 62.2657 214.888 62.2495 214.883 62.2301L214.562 62.3454Z" fill="#1B2536"/>
<path d="M212.708 62.7482C212.708 62.7482 212.718 63.2979 212.707 63.7545C212.696 64.2111 213.191 64.4572 213.73 64.0711" stroke="#422424" stroke-width="0.4636" stroke-miterlimit="10"/>
<path d="M212.868 64.9595C213.342 65.1119 214.517 65.1835 215.261 64.0721" stroke="#422424" stroke-width="0.4636" stroke-miterlimit="10"/>
<path d="M214.908 63.8497L215.454 64.2132" stroke="#422424" stroke-width="0.4636" stroke-miterlimit="10"/>
<path d="M213.463 60.8534C213.463 60.8534 214.638 60.4334 215.456 60.75" stroke="#732727" stroke-width="0.9712" stroke-miterlimit="10" stroke-linecap="round" stroke-linejoin="round"/>
<path d="M210.758 61.4708C210.758 61.4708 211.513 60.9916 212.331 61.2851" stroke="#732727" stroke-width="0.9712" stroke-miterlimit="10" stroke-linecap="round" stroke-linejoin="round"/>
<path d="M220.158 70.6997L216.195 97.0873C216.023 98.2288 216.105 99.3983 216.434 100.498L218.002 105.751C218.265 106.632 219.209 107.026 219.947 106.563L227.697 101.713L224.34 96.1639L228.787 79.1359C229.416 76.7286 228.265 74.1947 226.123 73.2713L220.158 70.6997Z" fill="#415780"/>
<path d="M222.637 96.4202L218.54 100.154" stroke="#1B2536" stroke-width="0.4636" stroke-miterlimit="10"/>
<path d="M220.741 71.6727L221.115 72.2946C222.28 74.2373 222.361 76.7206 221.323 78.7472L220.602 80.1542L221.407 82.7392C221.759 83.8704 221.676 85.1078 221.179 86.1728L216.809 95.5254" stroke="#1B2536" stroke-width="0.4636" stroke-miterlimit="10"/>
<path d="M224.34 96.1639L219.151 106.745C219.418 106.773 219.694 106.722 219.948 106.563L227.697 101.713L224.34 96.1639Z" fill="#1B2536"/>
<path d="M224.458 83.0826L225.001 93.6317L226.975 86.0736L224.458 83.0826Z" fill="#1B2536"/>
<path d="M220.583 106.166L225.874 107.447L222.632 103.581L220.583 106.166Z" fill="#DE6767"/>
<path d="M213.564 70.7406L210.397 104.575C210.307 105.532 209.565 106.26 208.679 106.26L200.866 106.253C200.866 106.253 203.975 98.1001 206.499 93.6155L206.436 91.164L202.765 95.3643C201.316 97.0216 198.955 97.2407 197.268 95.8753C195.515 94.4554 195.075 91.8026 196.262 89.8082L204.195 76.483C205.092 74.9754 206.401 73.8108 207.939 73.1517L213.564 70.7406Z" fill="#415780"/>
<path d="M213.143 71.2667C212.237 72.7404 209.811 74.9496 211.682 79.5495C209.74 83.2684 209.348 88.285 210.765 94.4307" stroke="#1B2536" stroke-width="0.4636" stroke-miterlimit="10"/>
<path d="M202.471 92.9381L203.183 86.0354" stroke="#1B2536" stroke-width="0.4636" stroke-miterlimit="10"/>
<path d="M215.731 92.2198L203.428 92.2085L197.391 73.3514L209.695 73.3628L215.731 92.2198Z" fill="#D9956A"/>
<path d="M223.726 82.5673L229.363 93.3839L222.632 103.581L227.11 108.92L236.489 99.4688C238.541 97.4006 239.07 94.099 237.78 91.4003L231.513 78.2857C230.469 76.1007 228.735 74.3982 226.628 73.4898L224.346 72.5061L223.726 82.5673Z" fill="#415780"/>
<path d="M229.363 93.384L230.894 91.1855" stroke="#1B2536" stroke-width="0.4636" stroke-miterlimit="10"/>
<path d="M198.023 83.7314C198.049 83.5973 198.88 82.5038 199.64 81.925C200.082 81.5884 200.585 81.2934 200.928 81.1055C201.169 80.9735 201.46 81.0306 201.645 81.2433L202.262 81.9492C202.451 82.1651 202.484 82.4903 202.344 82.7466L200.914 85.3666C200.914 85.3666 203.032 84.1401 203.177 84.2456C203.263 84.3081 202.455 85.2913 201.783 86.0806C201.223 86.738 200.325 86.9184 199.598 86.4963C198.713 85.9815 197.757 85.0958 198.023 83.7314Z" fill="#DE6767"/>
<path d="M199.283 83.4691L201.762 81.3762" stroke="#422424" stroke-width="0.4636" stroke-miterlimit="10"/>
<path d="M200.171 84.6634L202.222 81.9578" stroke="#422424" stroke-width="0.4636" stroke-miterlimit="10"/>
<path d="M4.9707 186.762L265 187" stroke="#28364F" stroke-width="1.3993" stroke-miterlimit="10"/>
<path d="M50.3185 48.7326C49.9799 47.5642 48.6948 46.9622 47.4478 47.3887C47.1047 47.506 46.8048 47.6934 46.5509 47.9217C45.9208 47.0355 44.8285 46.6214 43.7874 46.9773C43.2653 47.1561 42.8354 47.5023 42.529 47.9433C41.883 47.2331 40.9038 46.9299 39.9667 47.2503C39.3862 47.4484 38.9186 47.8533 38.6092 48.3659C38.1972 48.2189 37.7426 48.2012 37.2974 48.3535C36.165 48.7407 35.5363 50.0512 35.8928 51.2805C36.097 51.9853 36.5844 52.5011 37.1734 52.7477L38.8725 56.107L46.7483 53.8838L48.1692 51.7338C48.3368 51.7128 48.5054 51.6773 48.6739 51.6197C49.9209 51.1938 50.6571 49.901 50.3185 48.7326Z" fill="#1B2536"/>
<path d="M75.041 73.6351L78.6182 69.0251C78.6182 69.0251 78.7907 66.4745 79.9112 65.0934C81.0317 63.7129 82.1091 63.1276 82.3248 63.2213C82.5405 63.315 81.0104 66.0061 81.0104 66.0061C81.0104 66.0061 82.4542 65.8187 83.2946 65.0934C84.1349 64.3681 85.8157 62.4255 86.3328 62.7065C86.8499 62.9871 87.3026 66.0761 85.1692 68.6503C85.1692 68.6503 85.8157 68.6697 86.4191 68.1566C87.0225 67.644 87.3889 67.1755 87.6259 67.4335C87.8629 67.6908 86.9362 69.1887 86.3328 69.5861C85.7294 69.984 84.9753 70.2645 84.9753 70.2645C84.9753 70.2645 83.7418 71.7625 81.3525 72.1598L79.3297 77.1441L75.041 73.6351Z" fill="#9E643E"/>
<path d="M83.3657 66.656C83.3657 66.656 85.3687 65.0763 86.3707 63.1632" stroke="#422424" stroke-width="0.4636" stroke-miterlimit="10"/>
<path d="M84.2046 67.6564C84.2046 67.6564 85.5784 65.9888 86.4669 64.7079" stroke="#422424" stroke-width="0.4636" stroke-miterlimit="10"/>
<path d="M82.9443 66.1821C82.9443 66.1821 84.108 67.3931 84.6415 68.5518" stroke="#422424" stroke-width="0.4636" stroke-miterlimit="10"/>
<path d="M79.9702 69.9125C79.9702 69.9125 81.7481 68.1652 83.9782 68.5513" stroke="#422424" stroke-width="0.4636" stroke-miterlimit="10"/>
<path d="M76.6157 71.6063L75.041 73.6351L79.3292 77.1452L80.6049 74.0024L76.6157 71.6063Z" fill="#28364F"/>
<path d="M59.0772 69.7526L68.5123 80.3979L75.7093 71.9268L81.6995 77.8237C81.6995 77.8237 75.4951 88.5945 73.556 91.9172C71.617 95.2404 66.4869 96.4508 62.4789 91.8176C58.7535 87.5107 52.9115 80.07 52.9115 80.07L50.9546 65.7294L51.7563 65.8279C54.5427 66.1703 57.1322 67.5584 59.0772 69.7526Z" fill="#546169"/>
<path d="M56.0845 71.2871L59.7425 88.5671L54.6333 82.247L56.0845 71.2871Z" fill="#1B2536"/>
<path d="M42.8265 171.851L42.6867 176.701C42.6406 178.304 43.4711 179.785 44.8043 180.476L48.6244 182.457C49.6998 183.015 50.5773 183.941 51.1222 185.092C51.4683 185.823 50.9854 186.694 50.2278 186.7C45.9892 186.731 35.0509 186.8 35.1555 186.687C35.2601 186.573 36.2959 181.807 36.6875 179.992C36.7862 179.534 36.806 179.062 36.747 178.597L35.8883 171.851H42.8265Z" fill="#9E643E"/>
<path d="M74.4558 171.851L75.3021 176.701C75.5817 178.304 76.7136 179.785 78.1872 180.476L82.4099 182.457C83.5988 183.015 84.6643 183.941 85.4432 185.092C85.8929 185.757 85.461 186.695 84.7014 186.701C80.3513 186.732 69.7209 186.799 69.8007 186.687C69.882 186.573 69.949 181.807 69.9713 179.992C69.9767 179.534 69.9009 179.062 69.7472 178.597L67.5171 171.851H74.4558Z" fill="#9E643E"/>
<path d="M58.8154 102.208L76.5709 174.097H65.7105L45.951 111.754L44.5935 174.097H34.5952L31.7617 103.741L49.2912 94.8662L58.8154 102.208Z" fill="#546169"/>
<path d="M59.4595 104.817L32.1494 113.37L31.7617 103.741L49.2912 94.8662L58.8154 102.208L59.4595 104.817Z" fill="#1B2536"/>
<path d="M47.438 101.038L68.383 174.097" stroke="#1B2536" stroke-width="0.5" stroke-miterlimit="10"/>
<path d="M48.6546 100.785L49.2693 98.6444L50.0572 100.98C50.6164 102.638 52.0701 103.741 53.6963 103.741H60.1407L56.1327 85.5933L56.0846 71.2866C56.0752 68.4765 54.1292 66.1192 51.5579 65.8037L45.774 65.0935H39.1313L35.4604 65.976C33.1564 66.53 31.734 69.0483 32.3245 71.5294L36.2541 88.0502C36.2541 88.0502 32.8926 98.4054 31.7612 103.741H44.9544C46.6505 103.741 48.1493 102.544 48.6546 100.785Z" fill="#546169"/>
<path d="M37.4393 77.1454L35.7006 85.7216L34.2915 79.7977L37.4393 77.1454Z" fill="#1B2536"/>
<path d="M34.2915 103.741L36.8364 174.097" stroke="#1B2536" stroke-width="0.5" stroke-miterlimit="10"/>
<path d="M68.5117 80.3986L65.0645 84.096" stroke="#1B2536" stroke-width="0.4636" stroke-miterlimit="10"/>
<path d="M31.7617 103.741H37.5259L34.615 93.2917C33.5932 96.6543 32.3626 100.906 31.7617 103.741Z" fill="#1B2536"/>
<path d="M50.0319 86.1753L51.3398 88.8567C51.6829 89.5604 51.7488 90.3853 51.5213 91.1429L49.4429 98.0666" stroke="#1B2536" stroke-width="0.4636" stroke-miterlimit="10"/>
<path d="M49.8515 89.7354C49.8515 90.1102 49.5718 90.4139 49.2268 90.4139C48.8817 90.4139 48.6021 90.1102 48.6021 89.7354C48.6021 89.3607 48.8817 89.057 49.2268 89.057C49.5713 89.0565 49.8515 89.3607 49.8515 89.7354Z" stroke="white" stroke-width="0.4636" stroke-miterlimit="10"/>
<path d="M51.9825 116.064L44.3638 106.698L33.0586 117.544L40.6773 126.91L51.9825 116.064Z" fill="white"/>
<path d="M51.066 115.943L44.3608 107.7L33.9742 117.665L40.6794 125.908L51.066 115.943Z" fill="#6E9296"/>
<path d="M48.9024 111.76L49.2599 111.417C49.5395 111.149 49.6298 110.693 49.4309 110.35C49.1776 109.913 48.6392 109.842 48.2985 110.169L47.9108 110.541L47.1706 109.631L46.6376 110.143C46.3501 110.419 46.3228 110.895 46.5771 111.207L48.129 113.115C48.3828 113.427 48.8216 113.457 49.1092 113.181L49.6422 112.669L48.9024 111.76Z" fill="#EBBC3B"/>
<path d="M48.0557 110.707L48.9084 111.754L49.1687 111.505L48.0557 110.707Z" fill="#28364F"/>
<path d="M48.9716 110.915C48.8838 110.999 48.7504 110.99 48.6726 110.895C48.5952 110.8 48.6037 110.655 48.6909 110.57C48.7787 110.486 48.9126 110.495 48.9899 110.59C49.0677 110.686 49.0593 110.831 48.9716 110.915Z" fill="#28364F"/>
<path d="M40.5403 116.811L38.8854 114.609L37.9126 113.881L41.9945 109.964L44.0545 112.777L44.5107 114.785L43.2419 113.831L40.9394 113.564L40.5403 116.811Z" fill="#28364F"/>
<path d="M51.1222 185.092C50.5773 183.941 49.7003 183.015 48.6244 182.457L44.8043 180.476C44.2688 180.198 43.8196 179.789 43.4706 179.3H41.6331C40.5072 179.3 39.5944 180.291 39.5944 181.514V181.819L38.0431 179.3H36.7763C36.7664 179.532 36.7366 179.764 36.6875 179.992C36.2959 181.807 35.2601 186.573 35.1555 186.687C35.0514 186.8 45.9892 186.73 50.2278 186.7C50.9854 186.694 51.4683 185.823 51.1222 185.092Z" fill="#1B2536"/>
<path d="M84.7015 186.701C85.4615 186.696 85.8934 185.757 85.4432 185.092C84.6643 183.941 83.5988 183.016 82.4099 182.458L78.1872 180.477C77.5952 180.199 77.0627 179.79 76.614 179.3H74.7766C73.6506 179.3 72.9391 180.292 73.188 181.514L73.25 181.82L71.1865 179.3H69.9197C69.9569 179.533 69.9748 179.764 69.9718 179.992C69.9495 181.807 69.8825 186.574 69.8012 186.687C69.7209 186.799 80.3513 186.732 84.7015 186.701Z" fill="#1B2536"/>
<path d="M39.6592 54.727C39.6592 54.727 40.9735 53.4633 40.866 51.7785C40.866 51.7785 42.9131 52.1059 43.5809 50.8422C44.4858 51.6848 45.7575 51.5911 46.4898 51.0764C47.0287 51.5911 47.4378 51.6148 47.4378 51.6148V55.1486C47.4378 55.1486 48.472 56.857 47.9767 58.3313C47.4809 59.8055 46.2097 60.3202 46.2097 60.3202L46.6192 64.1582H39.6592L39.853 56.2954L39.6592 54.727Z" fill="#9E643E"/>
<path d="M43.0971 53.6416C42.8135 53.6416 42.584 53.8909 42.584 54.1989C42.584 54.2554 42.5994 54.3071 42.6137 54.3588L42.9881 54.256L42.7268 54.5806C42.8205 54.6878 42.9509 54.7562 43.0971 54.7562C43.3807 54.7562 43.6103 54.5069 43.6103 54.1989C43.6108 53.8914 43.3807 53.6416 43.0971 53.6416Z" fill="#1B2536"/>
<path d="M46.2871 53.6416C46.004 53.6416 45.7739 53.8909 45.7739 54.1989C45.7739 54.2554 45.7893 54.3071 45.8037 54.3588L46.178 54.256L45.9167 54.5806C46.0104 54.6878 46.1403 54.7562 46.2871 54.7562C46.5707 54.7562 46.8002 54.5069 46.8002 54.1989C46.8002 53.8914 46.5707 53.6416 46.2871 53.6416Z" fill="#1B2536"/>
<path d="M45.0568 53.6857V54.3684C45.0568 54.6306 45.1242 54.8874 45.2517 55.1098L45.4728 55.4959C45.5715 55.6687 45.4748 55.8949 45.2898 55.9245L44.6587 56.0257" stroke="#422424" stroke-width="0.4636" stroke-miterlimit="10"/>
<path d="M42.3149 52.6853C42.3149 52.6853 43.2089 52.2992 43.8851 52.6853" stroke="#422424" stroke-width="0.7284" stroke-miterlimit="10"/>
<path d="M45.3506 52.6853C45.3506 52.6853 46.2445 52.2992 46.9208 52.6853" stroke="#422424" stroke-width="0.7284" stroke-miterlimit="10"/>
<path d="M45.7735 56.5464H43.6099C43.6099 56.5464 43.9306 58.7577 44.658 58.705C45.3853 58.6527 45.7735 56.5464 45.7735 56.5464Z" fill="#422424"/>
<path d="M44.5182 57.5C44.2822 57.5 44.0536 57.5194 43.834 57.5528C44.004 58.1289 44.2738 58.733 44.658 58.7056C45.0219 58.6792 45.3006 58.1391 45.4885 57.6061C45.185 57.5388 44.8593 57.5 44.5182 57.5Z" fill="#943232"/>
<path d="M45.7739 60.4781C44.4645 60.9347 42.1695 60.5837 41.1997 59.0917" stroke="#422424" stroke-width="0.4636" stroke-miterlimit="10"/>
<path d="M39.4821 62.9408H46.8953C47.2245 62.9408 47.5032 63.2057 47.5468 63.56L47.8264 65.8424L49.2915 84.6569L38.6631 65.9711L38.8272 63.6004C38.853 63.2289 39.1386 62.9408 39.4821 62.9408Z" fill="#4A75C9"/>
<path d="M39.3574 65.7963C39.3574 65.7963 44.012 66.7089 47.2763 65.7963" stroke="#1B2536" stroke-width="0.4636" stroke-miterlimit="10"/>
<path d="M37.2653 106.515L38.6446 108.434C38.6446 108.434 41.4027 109.37 42.3725 109.885C43.3423 110.4 44.1608 112.623 44.1608 112.623C44.1608 112.623 44.8718 114.659 44.6135 114.799C44.3552 114.94 43.6224 113.372 43.6224 113.372L42.3512 112.155L42.6744 114.808C42.6744 114.808 42.8356 116.982 42.6313 117.069C42.2218 117.245 41.9739 117.069 41.9739 117.069C41.9739 117.069 41.6724 117.251 41.3705 117.09C40.8747 117.21 40.7993 117.069 40.541 116.812C40.2822 116.554 39.3992 114.378 39.3992 114.378L38.1924 113.021C38.1924 113.021 35.822 112.529 35.6068 111.125L34.2925 109.324L37.2653 106.515Z" fill="#9E643E"/>
<path d="M41.3003 112.424C41.3003 112.424 41.979 114.372 41.9954 116.794" stroke="#422424" stroke-width="0.4636" stroke-miterlimit="10"/>
<path d="M40.2983 113.564C40.2983 113.564 41.1873 115.477 41.3003 116.794" stroke="#422424" stroke-width="0.4636" stroke-miterlimit="10"/>
<path d="M37.8087 107.271L35.1785 110.539L34.2915 109.323L37.2648 106.515L37.8087 107.271Z" fill="#28364F"/>
<path d="M34.624 66.1768L36.8357 65.6454L37.7192 76.7479L30.2853 92.0055L38.6028 106.374L33.5174 110.54C33.5174 110.54 22.9767 99.8845 20.933 95.2351C18.7763 90.3294 25.8176 76.6251 29.3487 70.2851C30.5163 68.1884 32.4221 66.7061 34.624 66.1768Z" fill="#546169"/>
<path d="M27.9155 87.9102L30.2854 92.0055" stroke="#1B2536" stroke-width="0.4636" stroke-miterlimit="10"/>
<path d="M48.903 65.9987L50.9065 67.6915C51.3547 68.0706 51.5357 68.7145 51.3582 69.3003L50.2788 72.8632L52.4455 74.857C52.858 75.2371 53.0211 75.8482 52.8589 76.4088L50.0314 86.1749L40.2558 78.0122C39.7367 77.5788 39.5805 76.8024 39.8864 76.1735L41.1998 73.471L37.0142 70.1371C36.3707 69.6245 36.2775 68.6192 36.8144 67.9779L38.3013 66.2016" stroke="#1B2536" stroke-width="0.4636" stroke-miterlimit="10"/>
<path d="M47.854 66.2017L48.1113 82.583L49.2913 84.6576L47.854 66.2017Z" fill="#1B2536"/>
<path d="M38.662 57.6518C39.6704 57.6518 40.488 56.7639 40.488 55.6687C40.488 54.5735 39.6704 53.6857 38.662 53.6857C37.6535 53.6857 36.8359 54.5735 36.8359 55.6687C36.8359 56.7639 37.6535 57.6518 38.662 57.6518Z" fill="#9E643E"/>
<path d="M37.7197 55.0781C38.3013 54.2591 40.0217 55.2332 40.0252 56.1076" stroke="#422424" stroke-width="0.4636" stroke-miterlimit="10"/>
<path d="M38.1938 55.9207L38.8726 54.8649" stroke="#422424" stroke-width="0.4636" stroke-miterlimit="10"/>
<path d="M25.2617 53.1952V61.2981" stroke="#EBBC3B" stroke-width="2" stroke-miterlimit="10" stroke-linecap="round" stroke-linejoin="round"/>
<path d="M28.992 57.2465H21.5308" stroke="#EBBC3B" stroke-width="2" stroke-miterlimit="10" stroke-linecap="round" stroke-linejoin="round"/>
<path d="M121.019 8.39636V16.4993" stroke="#EBBC3B" stroke-width="2" stroke-miterlimit="10" stroke-linecap="round" stroke-linejoin="round"/>
<path d="M124.749 12.4481H117.288" stroke="#EBBC3B" stroke-width="2" stroke-miterlimit="10" stroke-linecap="round" stroke-linejoin="round"/>
<path d="M246.928 165.625V173.728" stroke="#EBBC3B" stroke-width="2" stroke-miterlimit="10" stroke-linecap="round" stroke-linejoin="round"/>
<path d="M250.658 169.676H243.197" stroke="#EBBC3B" stroke-width="2" stroke-miterlimit="10" stroke-linecap="round" stroke-linejoin="round"/>
<path d="M231.975 53.1133C241.114 53.1133 248.523 47.0676 248.523 39.6098C248.523 32.1521 241.114 26.1064 231.975 26.1064C222.835 26.1064 215.426 32.1521 215.426 39.6098C215.426 47.0676 222.835 53.1133 231.975 53.1133Z" fill="#A4CACF"/>
<path d="M226.974 49.6555L226.339 60.8533L237.275 49.6555H226.974Z" fill="#A4CACF"/>
<path d="M225.768 33.1832H238.181" stroke="white" stroke-width="0.9712" stroke-miterlimit="10"/>
<path d="M225.768 36.7756H238.181" stroke="white" stroke-width="0.9712" stroke-miterlimit="10"/>
<path d="M225.768 40.3685H238.181" stroke="white" stroke-width="0.9712" stroke-miterlimit="10"/>
<path d="M225.768 43.9615H238.181" stroke="white" stroke-width="0.9712" stroke-miterlimit="10"/>
<path d="M64.223 33.8099H23.4461C21.1932 33.8099 19.3667 31.8263 19.3667 29.3797V4.43024C19.3667 1.9836 21.1932 0 23.4461 0H64.223C66.4759 0 68.3025 1.9836 68.3025 4.43024V29.3792C68.3025 31.8263 66.4759 33.8099 64.223 33.8099Z" fill="#EBBC3B"/>
<path d="M39.2139 32.7864H48.455L43.8342 43.6698L39.2139 32.7864Z" fill="#EBBC3B"/>
<path d="M24.0161 19.5899C24.0161 19.5899 25.1892 19.5845 27.7872 16.9047C30.3851 14.2254 32.3123 14.4214 34.826 15.8919C37.3397 17.3629 41.3621 17.4873 43.6249 14.8263C45.8872 12.1659 48.6528 9.12592 51.8373 10.5969C55.0218 12.0679 59.0437 12.8869 63.6527 6.18445" stroke="white" stroke-width="1.9425" stroke-miterlimit="10"/>
<path d="M25.957 18.5663V27.0703" stroke="#4A75C9" stroke-width="0.695" stroke-miterlimit="10"/>
<path d="M32.0889 14.8516V27.0703" stroke="#4A75C9" stroke-width="0.695" stroke-miterlimit="10"/>
<path d="M38.2207 16.9045V27.0702" stroke="#4A75C9" stroke-width="0.695" stroke-miterlimit="10"/>
<path d="M44.353 13.9836V27.0703" stroke="#4A75C9" stroke-width="0.695" stroke-miterlimit="10"/>
<path d="M50.4854 10.2184V27.0703" stroke="#4A75C9" stroke-width="0.695" stroke-miterlimit="10"/>
<path d="M56.6172 11.5596V27.0703" stroke="#4A75C9" stroke-width="0.695" stroke-miterlimit="10"/>
<path d="M62.7495 7.26782V27.0704" stroke="#4A75C9" stroke-width="0.695" stroke-miterlimit="10"/>
<path d="M22.6392 27.0703H65.0294" stroke="#4A75C9" stroke-width="0.695" stroke-miterlimit="10"/>
<path d="M63.5678 7.26781C63.5678 7.75833 63.2014 8.15623 62.7497 8.15623C62.298 8.15623 61.9316 7.75833 61.9316 7.26781C61.9316 6.7773 62.298 6.3794 62.7497 6.3794C63.2014 6.37886 63.5678 6.77676 63.5678 7.26781Z" fill="#4A75C9"/>
<path d="M57.4359 11.5597C57.4359 12.0502 57.0695 12.4481 56.6179 12.4481C56.1662 12.4481 55.7998 12.0502 55.7998 11.5597C55.7998 11.0686 56.1662 10.6713 56.6179 10.6713C57.0695 10.6707 57.4359 11.0686 57.4359 11.5597Z" fill="#4A75C9"/>
<path d="M51.3041 10.2184C51.3041 10.7089 50.9377 11.1068 50.486 11.1068C50.0344 11.1068 49.668 10.7089 49.668 10.2184C49.668 9.72786 50.0344 9.32996 50.486 9.32996C50.9377 9.32996 51.3041 9.72786 51.3041 10.2184Z" fill="#4A75C9"/>
<path d="M45.1718 13.9836C45.1718 14.4741 44.8054 14.8721 44.3537 14.8721C43.902 14.8721 43.5356 14.4741 43.5356 13.9836C43.5356 13.4931 43.902 13.0952 44.3537 13.0952C44.8054 13.0947 45.1718 13.4926 45.1718 13.9836Z" fill="#4A75C9"/>
<path d="M39.0395 16.9047C39.0395 17.3952 38.6731 17.7931 38.2214 17.7931C37.7697 17.7931 37.4033 17.3952 37.4033 16.9047C37.4033 16.4141 37.7697 16.0162 38.2214 16.0162C38.6731 16.0162 39.0395 16.4141 39.0395 16.9047Z" fill="#4A75C9"/>
<path d="M32.9076 14.8721C32.9076 15.3626 32.5412 15.7605 32.0896 15.7605C31.6379 15.7605 31.2715 15.3626 31.2715 14.8721C31.2715 14.3815 31.6379 13.9836 32.0896 13.9836C32.5412 13.9836 32.9076 14.3815 32.9076 14.8721Z" fill="#4A75C9"/>
<path d="M26.7753 18.5663C26.7753 19.0568 26.4089 19.4547 25.9572 19.4547C25.5056 19.4547 25.1392 19.0568 25.1392 18.5663C25.1392 18.0758 25.5056 17.6779 25.9572 17.6779C26.4089 17.6779 26.7753 18.0758 26.7753 18.5663Z" fill="#4A75C9"/>
</svg>
