<svg width="248" height="224" viewBox="0 0 248 224" fill="none" xmlns="http://www.w3.org/2000/svg">
<path d="M122.5 78V68.6667H161.5V78H181V68.6667C181 63.716 178.946 58.968 175.289 55.4673C171.632 51.9667 166.672 50 161.5 50H122.5C117.328 50 112.368 51.9667 108.711 55.4673C105.054 58.968 103 63.716 103 68.6667V78H122.5Z" fill="#AFAFAF"/>
<path opacity="0.25" d="M112.75 159C110.164 159 107.684 158.052 105.856 156.364C104.027 154.676 103 152.387 103 150V132C103 129.613 104.027 127.324 105.856 125.636C107.684 123.948 110.164 123 112.75 123C115.336 123 117.816 123.948 119.644 125.636C121.473 127.324 122.5 129.613 122.5 132V150C122.5 152.387 121.473 154.676 119.644 156.364C117.816 158.052 115.336 159 112.75 159ZM171.25 159C168.664 159 166.184 158.052 164.356 156.364C162.527 154.676 161.5 152.387 161.5 150V132C161.5 129.613 162.527 127.324 164.356 125.636C166.184 123.948 168.664 123 171.25 123C173.836 123 176.316 123.948 178.144 125.636C179.973 127.324 181 129.613 181 132V150C181 152.387 179.973 154.676 178.144 156.364C176.316 158.052 173.836 159 171.25 159Z" fill="white"/>
<path opacity="0.5" d="M63.6 78.5H220.4C225.479 78.5 230.342 80.3532 233.921 83.6403C237.499 86.9262 239.5 91.3731 239.5 96V123C239.5 127.627 237.499 132.074 233.921 135.36C230.342 138.647 225.479 140.5 220.4 140.5H181.7V132C181.7 129.466 180.604 127.045 178.668 125.268C176.734 123.491 174.119 122.5 171.4 122.5C168.681 122.5 166.066 123.491 164.132 125.268C162.196 127.045 161.1 129.466 161.1 132V140.5H122.9V132C122.9 129.466 121.804 127.045 119.868 125.268C117.934 123.491 115.319 122.5 112.6 122.5C109.881 122.5 107.266 123.491 105.332 125.268C103.396 127.045 102.3 129.466 102.3 132V140.5H63.6C58.5213 140.5 53.6582 138.647 50.0789 135.36C46.501 132.074 44.5 127.627 44.5 123V96C44.5 91.3731 46.501 86.9262 50.0789 83.6403C53.6582 80.3532 58.5213 78.5 63.6 78.5Z" fill="#06748F" stroke="black"/>
<path d="M220.4 141.2H181.2V150.3C181.2 152.713 180.168 155.028 178.33 156.735C176.492 158.441 173.999 159.4 171.4 159.4C168.801 159.4 166.308 158.441 164.47 156.735C162.633 155.028 161.6 152.713 161.6 150.3V141.2H122.4V150.3C122.4 152.713 121.368 155.028 119.53 156.735C117.692 158.441 115.199 159.4 112.6 159.4C110.001 159.4 107.508 158.441 105.67 156.735C103.833 155.028 102.8 152.713 102.8 150.3V141.2H63.6C58.4018 141.2 53.4164 139.283 49.7407 135.869C46.065 132.456 44 127.827 44 123V195.8C44 200.627 46.065 205.256 49.7407 208.669C53.4164 212.083 58.4018 214 63.6 214H220.4C225.598 214 230.584 212.083 234.259 208.669C237.935 205.256 240 200.627 240 195.8V123C240 127.827 237.935 132.456 234.259 135.869C230.584 139.283 225.598 141.2 220.4 141.2Z" fill="#052731"/>
<path d="M40.4514 11.1426C18.1103 17.2967 5.45603 39.4139 12.1866 60.5439L13.0747 63.332C21.3896 83.8431 45.1562 95.633 72.5215 111.823C86.5862 83.1818 100.227 60.6665 93.0894 38.2586C86.3588 17.1286 62.7924 4.98863 40.4514 11.1426ZM79.9414 41.9084C84.483 56.1663 75.9444 71.09 60.8693 75.2426C45.7942 79.3951 29.8927 71.2036 25.3511 56.9457C20.8095 42.6878 29.348 27.7641 44.4231 23.6115C59.4982 19.459 75.3997 27.6505 79.9414 41.9084ZM65.6749 34.8699C66.1208 36.2697 65.9605 37.7742 65.2292 39.0523C64.4979 40.3304 63.2557 41.2774 61.7756 41.6851C60.2956 42.0928 58.699 41.9277 57.3372 41.2262C55.9754 40.5246 54.9598 39.3441 54.5139 37.9443C54.0679 36.5442 54.2283 35.0394 54.9597 33.7609C55.6911 32.4825 56.9337 31.5353 58.4141 31.1275C59.8945 30.7197 61.4915 30.8848 62.8536 31.5865C64.2158 32.2882 65.2289 33.4698 65.6749 34.8699Z" fill="#F97009" stroke="black" stroke-width="0.5" stroke-linecap="round" stroke-linejoin="round"/>
</svg>
