<svg width="18" height="18" viewBox="0 0 18 18" fill="none" xmlns="http://www.w3.org/2000/svg">
<g clip-path="url(#clip0_606_1626)">
<path fill-rule="evenodd" clip-rule="evenodd" d="M13.1315 3.26316C11.9853 2.43822 10.6184 1.97541 9.20679 1.93438C7.79521 1.89334 6.4037 2.27595 5.21154 3.03291C4.01939 3.78986 3.08123 4.88648 2.51795 6.18145C1.95468 7.47642 1.7921 8.91039 2.05117 10.2986C2.09386 10.548 2.0368 10.8042 1.89231 11.0119C1.74782 11.2196 1.52748 11.3622 1.2788 11.4089C1.03013 11.4557 0.773045 11.4028 0.563006 11.2617C0.352967 11.1206 0.206801 10.9026 0.156031 10.6547C-0.179019 8.86163 0.0387894 7.00903 0.780584 5.34253C1.52238 3.67602 2.75313 2.27431 4.30969 1.3232C5.86625 0.372083 7.67511 -0.0835158 9.49649 0.0167936C11.3179 0.117103 13.0658 0.768584 14.5085 1.88488L15.2953 1.09802C15.3851 1.00796 15.4997 0.946575 15.6244 0.921634C15.7491 0.896694 15.8785 0.909318 15.996 0.957909C16.1136 1.0065 16.2141 1.08888 16.2848 1.19461C16.3555 1.30034 16.3933 1.42467 16.3933 1.55188V4.50002C16.3933 4.67052 16.3256 4.83403 16.205 4.95459C16.0845 5.07515 15.921 5.14288 15.7505 5.14288H12.8023C12.6754 5.1426 12.5514 5.10474 12.4459 5.03408C12.3405 4.96343 12.2583 4.86313 12.2097 4.74584C12.1612 4.62855 12.1485 4.49951 12.1732 4.375C12.1978 4.25048 12.2588 4.13606 12.3485 4.04616L13.1315 3.26316ZM16.7199 6.57645C16.9712 6.52905 17.231 6.58343 17.4423 6.72762C17.6535 6.87181 17.7988 7.094 17.8462 7.34531C18.1815 9.13863 17.9638 10.9915 17.222 12.6583C16.4802 14.3251 15.2492 15.727 13.6924 16.6782C12.1356 17.6294 10.3264 18.0849 8.50481 17.9843C6.68317 17.8838 4.93513 17.2319 3.49246 16.1152L2.7056 16.9033C2.61569 16.9934 2.50104 17.0549 2.37619 17.0798C2.25134 17.1047 2.1219 17.0919 2.00429 17.0432C1.88668 16.9944 1.7862 16.9118 1.71558 16.8059C1.64495 16.7 1.60737 16.5755 1.6076 16.4482V13.5C1.6076 13.3295 1.67533 13.166 1.79589 13.0455C1.91645 12.9249 2.07996 12.8572 2.25046 12.8572H5.1986C5.32591 12.8569 5.45043 12.8945 5.55636 12.9651C5.66229 13.0358 5.74486 13.1362 5.79361 13.2539C5.84236 13.3715 5.85509 13.5009 5.83019 13.6258C5.80529 13.7506 5.74388 13.8653 5.65375 13.9552L4.86946 14.7382C6.01562 15.5631 7.38256 16.0259 8.79413 16.067C10.2057 16.108 11.5972 15.7254 12.7894 14.9684C13.9815 14.2115 14.9197 13.1148 15.483 11.8199C16.0462 10.5249 16.2088 9.09093 15.9497 7.70273C15.9263 7.57812 15.9277 7.4501 15.9538 7.32601C15.9799 7.20192 16.0302 7.0842 16.1018 6.97958C16.1735 6.87497 16.2651 6.78551 16.3714 6.71634C16.4776 6.64716 16.5965 6.59962 16.7212 6.57645H16.7199ZM9.8066 4.70188C9.8066 4.44613 9.70501 4.20086 9.52417 4.02002C9.34333 3.83919 9.09806 3.73759 8.84232 3.73759C8.58657 3.73759 8.3413 3.83919 8.16046 4.02002C7.97963 4.20086 7.87803 4.44613 7.87803 4.70188V5.14288C7.37537 5.22604 6.91741 5.4818 6.58295 5.86614C6.24849 6.25049 6.05844 6.73938 6.0455 7.24871C6.03256 7.75804 6.19754 8.25596 6.51206 8.65679C6.82657 9.05762 7.27096 9.3363 7.76874 9.44488L9.38875 9.79845C9.48481 9.82281 9.56886 9.88104 9.62542 9.96242C9.68199 10.0438 9.70728 10.1429 9.69665 10.2414C9.68601 10.3399 9.64016 10.4313 9.56753 10.4988C9.4949 10.5662 9.40037 10.6051 9.30132 10.6084H8.38332C8.29881 10.6081 8.21646 10.5818 8.14745 10.533C8.07844 10.4843 8.02612 10.4154 7.9976 10.3359C7.95539 10.2164 7.89007 10.1064 7.80535 10.0122C7.72064 9.91803 7.61821 9.84143 7.50389 9.78681C7.38957 9.73219 7.26562 9.70062 7.1391 9.6939C7.01259 9.68718 6.88599 9.70545 6.76653 9.74766C6.64707 9.78987 6.5371 9.8552 6.44289 9.93991C6.34868 10.0246 6.27208 10.1271 6.21746 10.2414C6.16284 10.3557 6.13127 10.4796 6.12455 10.6062C6.11784 10.7327 6.13611 10.8593 6.17832 10.9787C6.31061 11.3529 6.53591 11.6873 6.83302 11.9505C7.13014 12.2136 7.48931 12.3969 7.87675 12.483V12.9485C7.87675 13.2042 7.97834 13.4495 8.15918 13.6303C8.34002 13.8111 8.58529 13.9127 8.84103 13.9127C9.09678 13.9127 9.34204 13.8111 9.52288 13.6303C9.70372 13.4495 9.80532 13.2042 9.80532 12.9485V12.483C10.3247 12.3666 10.7888 12.0766 11.1212 11.6609C11.4536 11.2452 11.6343 10.7286 11.6336 10.1964C11.6328 9.66412 11.4506 9.14804 11.1171 8.73326C10.7836 8.31849 10.3186 8.02982 9.79889 7.91488L8.17889 7.56002C8.11603 7.54584 8.06059 7.50902 8.02314 7.45658C7.98569 7.40414 7.96886 7.33975 7.97585 7.27569C7.98285 7.21164 8.01318 7.15239 8.06106 7.10927C8.10894 7.06614 8.17102 7.04216 8.23546 7.04188H9.30003C9.38453 7.0422 9.46689 7.06854 9.5359 7.1173C9.60491 7.16607 9.65723 7.2349 9.68575 7.31445C9.77099 7.5557 9.94859 7.75321 10.1795 7.86352C10.2938 7.91814 10.4177 7.94971 10.5442 7.95643C10.6708 7.96314 10.7974 7.94487 10.9168 7.90266C11.0363 7.86045 11.1462 7.79513 11.2405 7.71042C11.3347 7.6257 11.4113 7.52327 11.4659 7.40895C11.5205 7.29463 11.5521 7.17068 11.5588 7.04416C11.5655 6.91765 11.5472 6.79105 11.505 6.67159C11.3726 6.29723 11.1471 5.96273 10.8498 5.69956C10.5524 5.4364 10.193 5.25323 9.80532 5.16731V4.70445L9.8066 4.70188Z" fill="white"/>
</g>
<defs>
<clipPath id="clip0_606_1626">
<rect width="18" height="18" fill="white"/>
</clipPath>
</defs>
</svg>
