<svg width="18" height="18" viewBox="0 0 18 18" fill="none" xmlns="http://www.w3.org/2000/svg">
<path fill-rule="evenodd" clip-rule="evenodd" d="M3.5994 7.2V4.2C3.5994 3.64845 3.70802 3.1023 3.91905 2.59273C4.13009 2.08316 4.4394 1.62016 4.82934 1.23015C5.21929 0.840146 5.68221 0.530776 6.19169 0.319706C6.70118 0.108636 7.24724 0 7.7987 0C8.35016 0 8.89622 0.108636 9.4057 0.319706C9.91518 0.530776 10.3781 0.840146 10.768 1.23015C11.158 1.62016 11.4673 2.08316 11.6783 2.59273C11.8894 3.1023 11.998 3.64845 11.998 4.2V7.2H13.7977C14.275 7.2 14.7328 7.38964 15.0703 7.72721C15.4078 8.06477 15.5974 8.52261 15.5974 9V9.66C16.2755 9.79771 16.8851 10.1656 17.3229 10.7014C17.7608 11.2373 18 11.908 18 12.6C18 13.292 17.7608 13.9627 17.3229 14.4986C16.8851 15.0344 16.2755 15.4023 15.5974 15.54V16.2C15.5974 16.6774 15.4078 17.1352 15.0703 17.4728C14.7328 17.8104 14.275 18 13.7977 18H1.7997C1.32239 18 0.864629 17.8104 0.52712 17.4728C0.189611 17.1352 0 16.6774 0 16.2L0 9C0 8.52261 0.189611 8.06477 0.52712 7.72721C0.864629 7.38964 1.32239 7.2 1.7997 7.2H3.5994ZM4.7992 4.2C4.7992 3.40435 5.11522 2.64129 5.67773 2.07868C6.24025 1.51607 7.00318 1.2 7.7987 1.2C8.59421 1.2 9.35715 1.51607 9.91966 2.07868C10.4822 2.64129 10.7982 3.40435 10.7982 4.2V7.2H4.7992V4.2ZM10.1983 10.8C9.72099 10.8 9.26323 10.9896 8.92572 11.3272C8.58821 11.6648 8.3986 12.1226 8.3986 12.6C8.3986 13.0774 8.58821 13.5352 8.92572 13.8728C9.26323 14.2104 9.72099 14.4 10.1983 14.4H14.9975C15.4748 14.4 15.9326 14.2104 16.2701 13.8728C16.6076 13.5352 16.7972 13.0774 16.7972 12.6C16.7972 12.1226 16.6076 11.6648 16.2701 11.3272C15.9326 10.9896 15.4748 10.8 14.9975 10.8H10.1983Z" fill="white"/>
</svg>
